<?xml version="1.0" encoding="utf-8"?>
<!-- Generator: Adobe Illustrator 19.0.1, SVG Export Plug-In . SVG Version: 6.00 Build 0)  -->
<!DOCTYPE svg PUBLIC "-//W3C//DTD SVG 1.1//EN" "http://www.w3.org/Graphics/SVG/1.1/DTD/svg11.dtd">
<svg version="1.1" id="Layer_2" xmlns="http://www.w3.org/2000/svg" xmlns:xlink="http://www.w3.org/1999/xlink" x="0px" y="0px"
	 viewBox="0 0 14 14" enable-background="new 0 0 14 14" xml:space="preserve">
<path d="M12.4,9h-2c-0.9,1-2.1,1.7-3.5,1.7C5.6,10.7,4.4,10,3.5,9h-2C0.7,9,0,9.7,0,10.7L0.5,14h13l0.5-3.3C14,9.7,13.3,9,12.4,9z"
	/>
<path d="M3.5,5C3.6,7,5.1,8.5,7,8.5c1.9,0,3.4-1.5,3.5-3.5C7.3,5,6.8,5,3.5,5z"/>
<path d="M12.5,2h-2.4L9.8,0.4C9.7,0.1,9.4-0.1,9.1,0H4.9C4.6-0.1,4.3,0.1,4.2,0.4L3.8,2H1.5C1.2,2,1,2.2,1,2.5v1.1
	C1,3.8,1.2,4,1.5,4h11.1C12.8,4,13,3.8,13,3.5V2.5C13,2.2,12.8,2,12.5,2z"/>
</svg>
