<?xml version="1.0" encoding="utf-8"?>
<!-- Generator: Adobe Illustrator 19.0.1, SVG Export Plug-In . SVG Version: 6.00 Build 0)  -->
<!DOCTYPE svg PUBLIC "-//W3C//DTD SVG 1.1//EN" "http://www.w3.org/Graphics/SVG/1.1/DTD/svg11.dtd">
<svg version="1.1" id="Layer_2" xmlns="http://www.w3.org/2000/svg" xmlns:xlink="http://www.w3.org/1999/xlink" x="0px" y="0px"
	 viewBox="0 0 14 14" enable-background="new 0 0 14 14" xml:space="preserve">
<path d="M3,14v-1.7C3,12.1,2.8,12,2.5,12H1c-0.3,0-0.5,0.1-0.5,0.3V14H3z"/>
<path d="M6.5,14v-2.3C6.5,11.3,6.3,11,6,11H4.5C4.2,11,4,11.3,4,11.8V14H6.5z"/>
<path d="M10,14v-3.5c0-0.3-0.2-0.5-0.5-0.5H8c-0.3,0-0.5,0.2-0.5,0.5V14H10z"/>
<path d="M13.5,14V8.5C13.5,8.2,13.3,8,13,8h-1.5C11.2,8,11,8.2,11,8.5V14H13.5z"/>
<path d="M13.4,2.8L10.5,0L7.7,2.8C7.4,3.1,7.6,3.6,8,3.6l1.4,0c-0.6,1.9-2.2,3.5-8,3.5c-0.6,0-1,0.4-1,1s0.4,1,1,1
	c6,0,9.2-1.7,10-5.5l1.5,0C13.4,3.6,13.7,3.1,13.4,2.8z"/>
</svg>
