<?xml version="1.0" encoding="utf-8"?>
<!-- Generator: Adobe Illustrator 19.0.1, SVG Export Plug-In . SVG Version: 6.00 Build 0)  -->
<!DOCTYPE svg PUBLIC "-//W3C//DTD SVG 1.1//EN" "http://www.w3.org/Graphics/SVG/1.1/DTD/svg11.dtd">
<svg version="1.1" id="Layer_2" xmlns="http://www.w3.org/2000/svg" xmlns:xlink="http://www.w3.org/1999/xlink" x="0px" y="0px"
	 viewBox="0 0 14 14" enable-background="new 0 0 14 14" xml:space="preserve">
<path d="M13.5,7.5V6c0-0.4-0.9-1-1-1h1C13.8,5,14,4.7,14,4c0-0.4-1.4,0.3-1.5,0.5c0-3.7-2.8-4-5.5-4s-5.5,0.3-5.5,4
	C1.4,4.3,0,3.6,0,4c0,0.7,0.2,1,0.5,1h1c-0.1,0.1-1,0.6-1,1v1.5C0.2,7.5,0,7.7,0,8v5.5C0,13.8,0.2,14,0.5,14h2C2.8,14,3,13.8,3,13.5
	V12h8v1.5c0,0.3,0.2,0.5,0.5,0.5h2c0.3,0,0.5-0.2,0.5-0.5V8C14,7.7,13.8,7.5,13.5,7.5z M7,2c2.7,0,4,0.3,4,2.9c-2.3,0-5.5,0-8,0
	C3,2.3,4.3,2,7,2z M1.8,8C1.6,8,1.5,7.9,1.5,7.8V6.2C1.5,6.1,1.6,6,1.8,6l2.4,0.3c0.1,0,0.3,0.1,0.3,0.2L5,7.8C5,7.9,4.9,8,4.7,8
	H1.8z M11,10.3H3C3,10.3,4.5,9,7,9C9.5,9,11,10.3,11,10.3z M12.5,7.8c0,0.1-0.1,0.2-0.3,0.2h-3C9.1,8,9,7.9,9,7.8l0.6-1.3
	c0-0.1,0.1-0.2,0.3-0.2L12.2,6c0.1,0,0.3,0.1,0.3,0.2V7.8z"/>
</svg>
