<?xml version="1.0" encoding="utf-8"?>
<!-- Generator: Adobe Illustrator 19.0.1, SVG Export Plug-In . SVG Version: 6.00 Build 0)  -->
<!DOCTYPE svg PUBLIC "-//W3C//DTD SVG 1.1//EN" "http://www.w3.org/Graphics/SVG/1.1/DTD/svg11.dtd">
<svg version="1.1" id="Layer_2" xmlns="http://www.w3.org/2000/svg" xmlns:xlink="http://www.w3.org/1999/xlink" x="0px" y="0px"
	 viewBox="0 0 14 14" enable-background="new 0 0 14 14" xml:space="preserve">
<g>
	<path d="M6.1,3.3H7h0.9c0.2,0,0.4-0.2,0.4-0.5v0c0-0.3-0.2-0.5-0.4-0.5H7H6.1c-0.2,0-0.4,0.2-0.4,0.5v0C5.8,3.1,5.9,3.3,6.1,3.3z"
		/>
	<g>
		<path d="M4.2,6.7c0.2-0.1,0.6-1,0.6-1l0.7-0.2V4.2c0,0-0.8,0-1.3,0C4,4.2,4,4.2,4,4.5c0,0.5,0,1.3,0,2.1C4,6.6,4.1,6.7,4.2,6.7z"
			/>
		<path d="M9.2,5.6c0,0,0.4,0.9,0.6,1c0.1,0.1,0.2,0,0.2-0.1c0-0.7,0-1.6,0-2.1c0-0.3,0-0.3-0.2-0.3c-0.4,0-1.3,0-1.3,0v1.3L9.2,5.6
			z"/>
		<path d="M7.2,3.8H7H6.8C6.5,3.8,6.4,4,6.3,4.2S6,6.3,6,6.3h1h1c0,0-0.2-1.8-0.3-2.1S7.5,3.8,7.2,3.8z"/>
	</g>
	<path d="M13.5,6.7h-2.3c-0.3,0-0.5,0.2-0.5,0.5v2.1c0,0,1.1-0.2,1.7-0.3c0.2,0,0.3,0,0.3,0.3c0,0.2,0,0.3,0,0.5
		c0,0.1-0.1,0.3-0.3,0.3c-0.1,0-0.2,0-0.3,0c-0.3,0-0.6,0.1-0.9,0.1c-0.9,0.1-1.9,0.1-2.9,0.2V9.7H9c0.7,0,1.3-0.6,1.3-1.3
		S9.7,7.2,9,7.2H8.6l-0.2,1C8.4,8.6,8.4,8.9,8,8.9H7H6c-0.4,0-0.4-0.4-0.4-0.7l-0.2-1H5c-0.7,0-1.3,0.6-1.3,1.3S4.3,9.7,5,9.7h0.8
		v0.7c-1,0-2-0.1-2.9-0.2c-0.3,0-0.6-0.1-0.9-0.1c-0.1,0-0.2,0-0.3,0c-0.2,0-0.3-0.2-0.3-0.3c0-0.2,0-0.3,0-0.5C1.3,9,1.4,8.9,1.6,9
		c0.5,0.1,1.6,0.3,1.7,0.3V7.2c0-0.3-0.2-0.5-0.5-0.5H0.5C0.2,6.7,0,6.9,0,7.2v4c0,0.3,0.2,0.5,0.5,0.5h2.3c0.2,0,0.4-0.2,0.5-0.4
		c1.2,0.1,2.4,0.1,3.7,0.1c0,0,0,0,0,0s0,0,0,0c1.3,0,2.5,0,3.7-0.1c0,0.2,0.2,0.4,0.5,0.4h2.3c0.3,0,0.5-0.2,0.5-0.5v-4
		C14,6.9,13.8,6.7,13.5,6.7z M7.8,10.4c-0.2,0-0.5,0-0.8,0s-0.5,0-0.8,0V9.7H7h0.8V10.4z"/>
</g>
</svg>
