<?xml version="1.0" encoding="utf-8"?>
<!-- Generator: Adobe Illustrator 19.0.1, SVG Export Plug-In . SVG Version: 6.00 Build 0)  -->
<!DOCTYPE svg PUBLIC "-//W3C//DTD SVG 1.1//EN" "http://www.w3.org/Graphics/SVG/1.1/DTD/svg11.dtd">
<svg version="1.1" id="Layer_2" xmlns="http://www.w3.org/2000/svg" xmlns:xlink="http://www.w3.org/1999/xlink" x="0px" y="0px"
	 viewBox="0 0 14 14" enable-background="new 0 0 14 14" xml:space="preserve">
<g>
	<path d="M7,14c-0.3,0-0.7,0-1-0.1c-0.3,0-0.5-0.3-0.4-0.6c0-0.3,0.3-0.5,0.6-0.4C6.6,13,7,13,7.5,13l0.1,0l0,0
		c0.2,0,0.4,0.2,0.5,0.4c0,0.3-0.1,0.5-0.4,0.6c0,0,0,0-0.1,0C7.4,14,7.2,14,7,14z M10.9,12.7c-0.2,0-0.3-0.1-0.4-0.2
		c-0.2-0.2-0.1-0.5,0.1-0.7c0.4-0.3,0.7-0.6,1-1c0.2-0.2,0.5-0.2,0.7-0.1c0.2,0.2,0.2,0.5,0.1,0.7c-0.4,0.4-0.8,0.8-1.2,1.1
		C11.1,12.7,11,12.7,10.9,12.7z M2.8,12.5c-0.1,0-0.2,0-0.3-0.1c-0.4-0.4-0.8-0.8-1.1-1.2c-0.2-0.2-0.1-0.5,0.1-0.7
		c0.2-0.2,0.5-0.1,0.7,0.1c0.3,0.4,0.6,0.7,1,1c0.2,0.2,0.2,0.5,0.1,0.7C3.1,12.4,3,12.5,2.8,12.5z M13.4,8.5
		C13.4,8.5,13.4,8.5,13.4,8.5c-0.3,0-0.5-0.3-0.5-0.6C13,7.6,13,7.3,13,7c0-0.2,0-0.4,0-0.5c0-0.3,0.2-0.6,0.4-0.6
		c0.3,0,0.5,0.1,0.5,0.4c0,0,0,0.1,0,0.1c0,0.2,0,0.4,0,0.6c0,0.3,0,0.7-0.1,1C13.9,8.3,13.7,8.5,13.4,8.5z M0,7.6l0.5,0L0,7.6
		C0,7.4,0,7.2,0,7c0-0.3,0-0.7,0.1-1c0-0.3,0.3-0.5,0.6-0.4c0.3,0,0.5,0.3,0.4,0.6C1,6.4,1,6.7,1,7c0,0.2,0,0.4,0,0.5L0,7.6z
		 M12.2,3.6c-0.2,0-0.3-0.1-0.4-0.2c-0.3-0.4-0.6-0.7-1-1c-0.2-0.2-0.2-0.5-0.1-0.7c0.2-0.2,0.5-0.2,0.7-0.1
		c0.4,0.3,0.8,0.7,1.1,1.2c0.2,0.2,0.1,0.5-0.1,0.7C12.4,3.5,12.3,3.6,12.2,3.6z M2,3.4c-0.1,0-0.2,0-0.3-0.1
		C1.5,3.1,1.4,2.8,1.6,2.5C2,2.1,2.4,1.7,2.8,1.4C3,1.2,3.3,1.3,3.5,1.5C3.7,1.7,3.6,2,3.4,2.2c-0.4,0.3-0.7,0.6-1,1
		C2.3,3.3,2.1,3.4,2,3.4z M7.9,1.1C7.9,1.1,7.9,1.1,7.9,1.1C7.4,1,6.9,1,6.5,1C6.2,1,5.9,0.8,5.9,0.6c0-0.3,0.1-0.5,0.4-0.5
		c0,0,0.1,0,0.1,0c0.6,0,1.1,0,1.6,0c0.3,0,0.5,0.3,0.4,0.6C8.4,0.9,8.1,1.1,7.9,1.1z"/>
</g>
</svg>
