<?xml version="1.0" encoding="utf-8"?>
<!-- Generator: Adobe Illustrator 19.0.1, SVG Export Plug-In . SVG Version: 6.00 Build 0)  -->
<!DOCTYPE svg PUBLIC "-//W3C//DTD SVG 1.1//EN" "http://www.w3.org/Graphics/SVG/1.1/DTD/svg11.dtd">
<svg version="1.1" id="Layer_2" xmlns="http://www.w3.org/2000/svg" xmlns:xlink="http://www.w3.org/1999/xlink" x="0px" y="0px"
	 viewBox="0 0 14 14" enable-background="new 0 0 14 14" xml:space="preserve">
<g>
	<g>
		<path d="M3.8,14c-0.1,0-0.2,0-0.3,0c-0.3-0.1-0.5-0.4-0.5-0.7c-0.1-1-0.1-1.9-0.2-3.2l0-0.6C1.4,8.7,0,6.9,0,5.4
			C0,2.1,2.9,0,7.4,0c2,0,3.9,0.8,5.2,2.1c1,1.1,1.5,2.4,1.4,3.7c-0.2,3.2-3.3,4.4-6,4.4c0,0,0,0,0,0c-0.1,0-0.2,0-0.2,0
			c-0.7,0.7-1.4,1.5-2.1,2.1c-0.6,0.6-1.1,1.1-1.3,1.4C4.2,13.9,4,14,3.8,14z M7.4,1.5C3.8,1.5,1.5,3,1.5,5.4c0,0.9,1.3,2.5,2.3,2.9
			C4,8.4,4.2,8.6,4.2,8.9l0.1,1c0.1,0.6,0.1,1.1,0.1,1.6c0.1-0.1,0.1-0.1,0.2-0.2C5.4,10.6,6.2,9.8,7,9c0.2-0.2,0.4-0.3,0.6-0.2
			c0.1,0,0.3,0,0.5,0h0c0.7,0,4.3-0.1,4.5-3c0.1-1.2-0.5-2.1-1-2.6C10.5,2.1,9,1.5,7.4,1.5z"/>
	</g>
</g>
</svg>
