<?xml version="1.0" encoding="utf-8"?>
<!-- Generator: Adobe Illustrator 19.0.1, SVG Export Plug-In . SVG Version: 6.00 Build 0)  -->
<!DOCTYPE svg PUBLIC "-//W3C//DTD SVG 1.1//EN" "http://www.w3.org/Graphics/SVG/1.1/DTD/svg11.dtd">
<svg version="1.1" id="Layer_2" xmlns="http://www.w3.org/2000/svg" xmlns:xlink="http://www.w3.org/1999/xlink" x="0px" y="0px"
	 viewBox="0 0 14 14" enable-background="new 0 0 14 14" xml:space="preserve">
<g>
	<path d="M4.4,7.8c1.9,0,4.1,0,6,0C10,7.3,9.6,6.9,9.2,6.5l0,0l0,0C9,6.3,8.8,6.1,8.5,6c0,0-0.1-0.1-0.1-0.1C8.2,5.7,8,5.6,7.7,5.5
		c0,0-0.1,0-0.1,0C7.1,5.2,6.5,5.1,5.8,5h0l0,0C5.6,5,5.4,5,5.1,5C3.6,5,0,6.5,0,10.1c0,2,1.5,3.9,2.2,3.9c3.3,0,6.1,0,9.8,0
		c-0.3-1.6-0.4-2.1-0.5-2.8C6,12.4,4.1,11.6,4.4,7.8z"/>
	<path d="M10.6,6.5c1.1,0,2.2,0,3.4,0c-0.2-1.1-0.3-1.5-0.4-2C9.8,5.4,8.4,4.7,8.6,2c1.3,0,2.9,0,4.3,0c-1-1.4-2-2-3.7-2
		C8,0,5.5,1.1,5.5,3.7c0,0.1,0,0.2,0,0.4C7.6,4.1,9.1,4.8,10.6,6.5z"/>
</g>
</svg>
