<?xml version="1.0" encoding="utf-8"?>
<!-- Generator: Adobe Illustrator 19.0.1, SVG Export Plug-In . SVG Version: 6.00 Build 0)  -->
<!DOCTYPE svg PUBLIC "-//W3C//DTD SVG 1.1//EN" "http://www.w3.org/Graphics/SVG/1.1/DTD/svg11.dtd">
<svg version="1.1" id="Layer_2" xmlns="http://www.w3.org/2000/svg" xmlns:xlink="http://www.w3.org/1999/xlink" x="0px" y="0px"
	 viewBox="0 0 14 14" enable-background="new 0 0 14 14" xml:space="preserve">
<path d="M11,3.3c-0.7-0.5-1.1-0.9-2.8-0.8C6.4,2.5,5,4.3,4.2,5.5C4.2,5.5,0,5.6,0,8c0,0.6,0.7,1.3,1.5,1.5l0,0v0c0,1.1,0.9,2,2,2
	c1.1,0,2-0.9,2-2c0.8,0,2.2,0,3,0c0,1.1,0.9,2,2,2c1.1,0,2-0.9,2-2v0l0,0C13.8,9.3,14,7.1,14,5C12.7,4.8,11.7,3.8,11,3.3z M3.5,10.5
	c-0.6,0-1-0.4-1-1s0.4-1,1-1s1,0.4,1,1S4.1,10.5,3.5,10.5z M5,6c0.7-0.9,2.1-2.4,3.3-2.5c1.5-0.1,1.8,0.4,2.3,0.7
	C10.4,4.7,10,6,10,6S7,6,5,6z M10.5,10.5c-0.6,0-1-0.4-1-1s0.4-1,1-1s1,0.4,1,1S11.1,10.5,10.5,10.5z"/>
</svg>
