<?xml version="1.0" encoding="utf-8"?>
<!-- Generator: Adobe Illustrator 19.0.1, SVG Export Plug-In . SVG Version: 6.00 Build 0)  -->
<!DOCTYPE svg PUBLIC "-//W3C//DTD SVG 1.1//EN" "http://www.w3.org/Graphics/SVG/1.1/DTD/svg11.dtd">
<svg version="1.1" id="Layer_2" xmlns="http://www.w3.org/2000/svg" xmlns:xlink="http://www.w3.org/1999/xlink" x="0px" y="0px"
	 viewBox="0 0 14 14" enable-background="new 0 0 14 14" xml:space="preserve">
<g>
	<g>
		<path d="M11.5,12.5H4c-2.9,0-4-1.9-4-3.6c0-1.5,0.7-2.7,1.9-3.3C1.6,4.8,1.6,4,2,3.2c0.5-1,1.7-1.7,2.9-1.7l0.2,0
			c1.4,0.1,2.1,1,2.5,1.8c0.3-0.1,0.7-0.2,1.1-0.2c0.7,0,1.4,0.3,1.9,0.8c0.9,0.9,1.1,1.9,0.7,3.1C13.6,7.3,14,8.7,14,9.6
			C14,11.7,12.4,12.4,11.5,12.5L11.5,12.5z M5,3C4.2,3,3.6,3.3,3.3,3.9C3.1,4.4,3.2,5,3.6,5.6l0.8,1L3.1,6.8C1.6,7,1.5,8.4,1.5,8.9
			c0,1,0.4,2.1,2.5,2.1h7.4c0.3,0,1.1-0.3,1.1-1.4c0-0.3,0-1.1-2.3-1.1l-1.6,0l0.8-1.2c0.7-1,0.7-1.7,0.1-2.3C9.2,4.7,9,4.6,8.7,4.6
			C8,4.6,7.4,5,7.4,5L6.3,5.8L6.3,4.5C6.2,4.3,6.1,3.1,5,3C5,3,5,3,5,3z"/>
	</g>
</g>
</svg>
