<?xml version="1.0" encoding="utf-8"?>
<!-- Generator: Adobe Illustrator 19.0.1, SVG Export Plug-In . SVG Version: 6.00 Build 0)  -->
<!DOCTYPE svg PUBLIC "-//W3C//DTD SVG 1.1//EN" "http://www.w3.org/Graphics/SVG/1.1/DTD/svg11.dtd">
<svg version="1.1" id="Layer_2" xmlns="http://www.w3.org/2000/svg" xmlns:xlink="http://www.w3.org/1999/xlink" x="0px" y="0px"
	 viewBox="0 0 14 14" enable-background="new 0 0 14 14" xml:space="preserve">
<polygon points="5.3,11.7 7.2,7.2 4.7,7.2 4.7,5.7 9.2,5.7 6.7,11.7 "/>
<path d="M12.5,2h-1.3V1c0-0.5-0.5-1-1.2-1H9.5C8.8,0,8.2,0.4,8.2,1v1h-3V1c0-0.5-0.5-1-1.2-1H3.5C2.8,0,2.2,0.4,2.2,1v1H1
	C0.4,2,0,2.4,0,2.9v10.2C0,13.6,0.4,14,1,14h11.6c0.5,0,1-0.4,1-0.9V2.9C13.5,2.4,13.1,2,12.5,2z M9.2,1c0-0.1,0.1-0.2,0.2-0.2H10
	c0.1,0,0.2,0.1,0.2,0.2V3c0,0.1-0.1,0.2-0.2,0.2H9.5C9.3,3.2,9.2,3.1,9.2,3V1z M3.2,1c0-0.1,0.1-0.2,0.2-0.2H4
	c0.1,0,0.2,0.1,0.2,0.2V3c0,0.1-0.1,0.2-0.2,0.2H3.5C3.3,3.2,3.2,3.1,3.2,3V1z M12.5,7v0.5V10v0.5v2c0,0.3-0.2,0.5-0.5,0.5h-2H9.5H7
	H6.5H4H3.5h-2C1.2,13,1,12.8,1,12.5v-2V10V7.5V7V5c0-0.3,0.2-0.5,0.5-0.5h2H4h2.5H7h2.5H10h2c0.3,0,0.5,0.2,0.5,0.5V7z"/>
</svg>
