<?xml version="1.0" encoding="utf-8"?>
<!-- Generator: Adobe Illustrator 19.0.1, SVG Export Plug-In . SVG Version: 6.00 Build 0)  -->
<!DOCTYPE svg PUBLIC "-//W3C//DTD SVG 1.1//EN" "http://www.w3.org/Graphics/SVG/1.1/DTD/svg11.dtd">
<svg version="1.1" id="Layer_2" xmlns="http://www.w3.org/2000/svg" xmlns:xlink="http://www.w3.org/1999/xlink" x="0px" y="0px"
	 viewBox="0 0 14 14" enable-background="new 0 0 14 14" xml:space="preserve">
<g>
	<polygon points="0,12.9 2.8,11.4 0.2,7.3 3.8,6.3 1,0.6 7.8,3.5 10.1,0 11.4,3.4 14,2.1 14,3.1 10.9,4.8 9.9,2.2 8.2,4.7 3,2.6 
		5.2,6.9 1.8,7.9 4.2,11.8 0,14 	"/>
</g>
<path d="M14,8.5c-1,0-2.4,0-3.5,0c0.7-0.9,2.1-2.4,3.3-2.5c0.1,0,0.1,0,0.2,0V5c-0.1,0-0.1,0-0.2,0C11.9,5,10.5,6.8,9.7,8
	c0,0-4.2,0.1-4.2,2.5c0,0.6,0.7,1.3,1.5,1.5v0c0,1.1,0.9,2,2,2c1.1,0,2-0.9,2-2c0.8,0,2.2,0,3,0V8.5z M9,13c-0.6,0-1-0.4-1-1
	s0.4-1,1-1s1,0.4,1,1S9.6,13,9,13z"/>
</svg>
