<?xml version="1.0" encoding="utf-8"?>
<!-- Generator: Adobe Illustrator 19.0.1, SVG Export Plug-In . SVG Version: 6.00 Build 0)  -->
<!DOCTYPE svg PUBLIC "-//W3C//DTD SVG 1.1//EN" "http://www.w3.org/Graphics/SVG/1.1/DTD/svg11.dtd">
<svg version="1.1" id="Layer_2" xmlns="http://www.w3.org/2000/svg" xmlns:xlink="http://www.w3.org/1999/xlink" x="0px" y="0px"
	 viewBox="0 0 14 14" enable-background="new 0 0 14 14" xml:space="preserve">
<path d="M12.5,2h-1.3V1c0-0.5-0.5-1-1.2-1H9.5C8.8,0,8.3,0.4,8.3,1v1h-3V1c0-0.5-0.5-1-1.2-1H3.5C2.8,0,2.2,0.4,2.2,1v1H1
	C0.4,2,0,2.4,0,2.9v10.2C0,13.6,0.4,14,1,14h11.6c0.5,0,1-0.4,1-0.9V2.9C13.5,2.4,13.1,2,12.5,2z M9.3,1c0-0.1,0.1-0.2,0.2-0.2H10
	c0.1,0,0.2,0.1,0.2,0.2V3c0,0.1-0.1,0.2-0.2,0.2H9.5C9.3,3.2,9.3,3.1,9.3,3V1z M3.2,1c0-0.1,0.1-0.2,0.2-0.2H4
	c0.1,0,0.2,0.1,0.2,0.2V3c0,0.1-0.1,0.2-0.2,0.2H3.5C3.3,3.2,3.2,3.1,3.2,3V1z M3.5,13h-2C1.2,13,1,12.8,1,12.5v-2h2.5V13z M3.5,10
	H1V7.5h2.5V10z M3.5,7H1V5c0-0.3,0.2-0.5,0.5-0.5h2V7z M6.5,13H4v-2.5h2.5V13z M6.5,10H4V7.5h2.5V10z M6.5,7H4V4.5h2.5V7z M9.5,13H7
	v-2.5h2.5V13z M9.5,10H7V7.5h2.5V10z M9.5,7H7V4.5h2.5V7z M12,13h-2v-2.5h2.5v2C12.5,12.8,12.3,13,12,13z M12.5,10H10V7.5h2.5V10z
	 M12.5,7H10V4.5h2c0.3,0,0.5,0.2,0.5,0.5V7z"/>
</svg>
