<?xml version="1.0" encoding="utf-8"?>
<!-- Generator: Adobe Illustrator 19.0.1, SVG Export Plug-In . SVG Version: 6.00 Build 0)  -->
<!DOCTYPE svg PUBLIC "-//W3C//DTD SVG 1.1//EN" "http://www.w3.org/Graphics/SVG/1.1/DTD/svg11.dtd">
<svg version="1.1" id="Layer_2" xmlns="http://www.w3.org/2000/svg" xmlns:xlink="http://www.w3.org/1999/xlink" x="0px" y="0px"
	 viewBox="0 0 14 14" enable-background="new 0 0 14 14" xml:space="preserve">
<path d="M9.1,3.2C8.7,2.9,8,3,7.7,3.4L3.9,8.5L1.7,6.3c-0.4-0.4-1-0.4-1.4,0s-0.4,1,0,1.4l3,3c0,0,0,0,0.1,0c0,0,0,0,0,0.1
	c0,0,0.1,0.1,0.2,0.1c0,0,0.1,0,0.1,0.1C3.8,11,3.9,11,4,11l0,0c0,0,0,0,0,0c0.1,0,0.3,0,0.4-0.1c0,0,0.1-0.1,0.1-0.1
	c0.1,0,0.1-0.1,0.2-0.1c0,0,0,0,0-0.1c0,0,0,0,0,0l4.5-6C9.6,4.2,9.5,3.5,9.1,3.2z"/>
<g>
	<path d="M13.6,3.2c-0.4-0.3-1.1-0.2-1.4,0.2L8.4,8.5L8.1,8.2L6.9,9.8l0.9,0.9c0,0,0,0,0.1,0c0,0,0,0,0,0.1c0,0,0.1,0.1,0.2,0.1
		c0,0,0.1,0,0.1,0.1C8.3,11,8.4,11,8.5,11l0,0l0,0c0.1,0,0.3,0,0.4-0.1c0,0,0.1-0.1,0.1-0.1c0.1,0,0.1-0.1,0.2-0.1c0,0,0,0,0-0.1
		c0,0,0,0,0,0l4.5-6C14.1,4.2,14,3.5,13.6,3.2z"/>
</g>
</svg>
