<?xml version="1.0" encoding="utf-8"?>
<!-- Generator: Adobe Illustrator 19.0.1, SVG Export Plug-In . SVG Version: 6.00 Build 0)  -->
<!DOCTYPE svg PUBLIC "-//W3C//DTD SVG 1.1//EN" "http://www.w3.org/Graphics/SVG/1.1/DTD/svg11.dtd">
<svg version="1.1" id="Layer_2" xmlns="http://www.w3.org/2000/svg" xmlns:xlink="http://www.w3.org/1999/xlink" x="0px" y="0px"
	 viewBox="0 0 14 14" enable-background="new 0 0 14 14" xml:space="preserve">
<path d="M7,0C3.1,0,0,3.1,0,7c0,3.9,3.1,7,7,7c3.9,0,7-3.1,7-7C14,3.1,10.9,0,7,0z M11.5,4.6l-4.5,6c0,0,0,0,0,0c0,0,0,0,0,0.1
	c-0.1,0.1-0.1,0.1-0.2,0.1c0,0-0.1,0.1-0.1,0.1C6.5,11,6.4,11,6.2,11c0,0,0,0,0,0l0,0c-0.1,0-0.2,0-0.3-0.1c0,0-0.1,0-0.1-0.1
	c-0.1,0-0.1,0-0.2-0.1c0,0,0,0,0-0.1c0,0,0,0-0.1,0l-3-3c-0.4-0.4-0.4-1,0-1.4s1-0.4,1.4,0l2.2,2.2L10,3.4c0.3-0.4,1-0.5,1.4-0.2
	C11.8,3.5,11.9,4.2,11.5,4.6z"/>
</svg>
