<?xml version="1.0" encoding="utf-8"?>
<!-- Generator: Adobe Illustrator 19.0.1, SVG Export Plug-In . SVG Version: 6.00 Build 0)  -->
<!DOCTYPE svg PUBLIC "-//W3C//DTD SVG 1.1//EN" "http://www.w3.org/Graphics/SVG/1.1/DTD/svg11.dtd">
<svg version="1.1" id="Layer_2" xmlns="http://www.w3.org/2000/svg" xmlns:xlink="http://www.w3.org/1999/xlink" x="0px" y="0px"
	 viewBox="0 0 14 14" enable-background="new 0 0 14 14" xml:space="preserve">
<g>
	<g>
		<path d="M6.8,5.6l1.1,1.1l1.6-2.1c0.3-0.4,0.2-1.1-0.2-1.4C8.8,2.9,8.2,3,7.8,3.4L6.4,5.3C6.5,5.4,6.7,5.5,6.8,5.6z"/>
		<path d="M4,8.5L4,8.5L1.8,6.3c-0.4-0.4-1-0.4-1.4,0s-0.4,1,0,1.4l3,3c0,0,0,0,0.1,0c0,0,0,0,0,0.1c0,0,0.1,0.1,0.2,0.1
			c0,0,0.1,0,0.1,0.1C3.9,11,4,11,4.1,11l0,0c0,0,0,0,0,0c0.1,0,0.3,0,0.4-0.1c0,0,0.1-0.1,0.1-0.1c0.1,0,0.1-0.1,0.2-0.1
			c0,0,0,0,0-0.1c0,0,0,0,0,0l0.5-0.7L4,8.5z"/>
	</g>
	<g>
		<path d="M13.5,3.2C13,2.9,12.4,3,12.1,3.4L8.3,8.5L6.1,6.3c-0.4-0.4-1-0.4-1.4,0s-0.4,1,0,1.4l3,3c0,0,0,0,0.1,0c0,0,0,0,0,0.1
			c0,0,0.1,0.1,0.2,0.1c0,0,0.1,0,0.1,0.1C8.1,11,8.3,11,8.4,11l0,0c0,0,0,0,0,0c0.1,0,0.3,0,0.4-0.1c0,0,0.1-0.1,0.1-0.1
			c0.1,0,0.1-0.1,0.2-0.1c0,0,0,0,0-0.1c0,0,0,0,0,0l4.5-6C14,4.2,13.9,3.5,13.5,3.2z"/>
	</g>
</g>
</svg>
