<?xml version="1.0" encoding="utf-8"?>
<!-- Generator: Adobe Illustrator 19.0.1, SVG Export Plug-In . SVG Version: 6.00 Build 0)  -->
<!DOCTYPE svg PUBLIC "-//W3C//DTD SVG 1.1//EN" "http://www.w3.org/Graphics/SVG/1.1/DTD/svg11.dtd">
<svg version="1.1" id="Layer_2" xmlns="http://www.w3.org/2000/svg" xmlns:xlink="http://www.w3.org/1999/xlink" x="0px" y="0px"
	 viewBox="0 0 14 14" enable-background="new 0 0 14 14" xml:space="preserve">
<g>
	<path fill-rule="evenodd" clip-rule="evenodd" d="M7.5,6c2-0.1,2.9,1.4,3,2C10.8,7.6,11,7.1,11,6.5C11,4.6,9.4,3,7.5,3
		C6.3,3,5.2,3.6,4.6,4.5C5.8,4.3,7.3,4.9,7.5,6z"/>
</g>
<g>
	<path d="M2.9,5.1c-0.1,0-0.1,0-0.2,0L1.3,4.5C1,4.4,0.9,4.1,1,3.8c0.1-0.3,0.4-0.4,0.7-0.3l1.4,0.6c0.3,0.1,0.4,0.4,0.3,0.7
		C3.3,5,3.1,5.1,2.9,5.1z"/>
</g>
<g>
	<path d="M13.5,9.5c-0.1,0-0.1,0-0.2,0l-1.4-0.6c-0.3-0.1-0.4-0.4-0.3-0.7C11.8,8,12,7.8,12.3,8l1.4,0.6c0.3,0.1,0.4,0.4,0.3,0.7
		C13.9,9.4,13.7,9.5,13.5,9.5z"/>
</g>
<g>
	<path d="M9.4,2.4c-0.1,0-0.1,0-0.2,0C9,2.2,8.8,1.9,8.9,1.7l0.6-1.4C9.6,0.1,9.9-0.1,10.2,0c0.3,0.1,0.4,0.4,0.3,0.7L9.9,2.1
		C9.8,2.3,9.6,2.4,9.4,2.4z"/>
</g>
<g>
	<path d="M5.6,2.4c-0.2,0-0.4-0.1-0.5-0.3L4.5,0.7C4.4,0.4,4.6,0.1,4.8,0c0.3-0.1,0.5,0,0.7,0.3L6,1.7C6.1,2,6,2.2,5.8,2.3
		C5.7,2.4,5.6,2.4,5.6,2.4z"/>
</g>
<g>
	<path d="M12.1,5.1c-0.2,0-0.4-0.1-0.5-0.3c-0.1-0.3,0-0.5,0.3-0.7l1.4-0.6c0.3-0.1,0.5,0,0.7,0.3c0.1,0.3,0,0.5-0.3,0.7l-1.4,0.6
		C12.2,5.1,12.2,5.1,12.1,5.1z"/>
</g>
<g>
	<g>
		<path d="M9.5,14H3.2C0.8,14,0,12.6,0,11.4c0-1.2,0.6-2,1.6-2.4c-0.2-0.5-0.2-1.1,0-1.6C2,6.5,2.9,6,4,6l0.1,0
			c1.2,0.1,1.7,0.7,2,1.4c0.3-0.1,0.7-0.2,1-0.2c0.6,0,1,0.2,1.5,0.5c0.5,0.5,1,1.2,0.5,2.3c2,0.2,2.4,1.2,2.4,1.9
			C11.5,13.4,10.2,13.9,9.5,14L9.5,14z M4,7C3.3,7,2.7,7.3,2.5,7.8C2.3,8.2,2.5,8.7,2.8,9l0.6,0.7L2.4,9.8C1.5,9.9,1,10.5,1,11.4
			C1,12,1.3,13,3.2,13h6.2c0.2,0,1.1-0.2,1.1-1.1c0-0.7-1.1-0.9-2.1-0.9l-1.2,0l0.6-0.8c0.6-0.8,0.6-1.3,0.1-1.7
			C7.7,8.3,7.5,8.2,7.1,8.2C6.6,8.2,6,8.5,6,8.5L5.3,9L5.3,8.1C5.2,8,5.1,7.1,4,7C4,7,4,7,4,7z"/>
	</g>
</g>
</svg>
