<?xml version="1.0" encoding="utf-8"?>
<!-- Generator: Adobe Illustrator 19.0.1, SVG Export Plug-In . SVG Version: 6.00 Build 0)  -->
<!DOCTYPE svg PUBLIC "-//W3C//DTD SVG 1.1//EN" "http://www.w3.org/Graphics/SVG/1.1/DTD/svg11.dtd">
<svg version="1.1" id="Layer_2" xmlns="http://www.w3.org/2000/svg" xmlns:xlink="http://www.w3.org/1999/xlink" x="0px" y="0px"
	 viewBox="0 0 14 14" enable-background="new 0 0 14 14" xml:space="preserve">
<path d="M12.5,5.2l-1.5-3c-0.1-0.4-0.6-0.5-1-0.5H4c-0.4,0-0.8,0.2-1,0.5l-1.5,3c0,0-1.5-0.9-1.5-0.5c0,0.7,0.2,1,0.5,1
	c0,0,0,0,0.5,0C0.9,5.8,0.5,6.2,0.5,7.3v4.6c0,0.2,0.2,0.4,0.4,0.4h1.8c0.2,0,0.4-0.2,0.4-0.4v-1.1c1.5,0.3,2.1,0.4,4,0.5
	c1.9-0.1,2.5-0.2,4-0.5v1.1c0,0.2,0.2,0.4,0.4,0.4h1.8c0.2,0,0.4-0.2,0.4-0.4V7.3c0-1-0.4-1.4-0.5-1.5c0.5,0,0.5,0,0.5,0
	c0.3,0,0.5-0.3,0.5-1C14,4.3,12.5,5.2,12.5,5.2z M5,3.3h4c0.7,0,0.9-0.1,1,0.1c0.3,0.5,0.7,1.2,1,1.9c0,0-2.5,0.9-4,1
	c-1.5-0.1-4-1-4-1c0.3-0.7,0.7-1.4,1-1.9C4.1,3.2,4.3,3.3,5,3.3z M4.3,8.6c0,0.1-0.1,0.2-0.3,0.1L2,8.2C1.9,8.1,1.8,8,1.8,7.9
	L1.5,6.9c0-0.1,0.1-0.2,0.3-0.1l2.5,0.5c0.1,0,0.2,0.1,0.2,0.2L4.3,8.6z M9,9.8H7H5V9.3h2h2V9.8z M7,8.8H5c0,0,0.2-1,0.9-1H7h1.1
	c0.8,0,0.9,1,0.9,1H7z M12.2,7.9c0,0.1-0.1,0.2-0.2,0.2l-2,0.6c-0.1,0-0.2,0-0.3-0.1L9.5,7.4c0-0.1,0.1-0.2,0.2-0.2l2.5-0.5
	c0.1,0,0.2,0,0.3,0.1L12.2,7.9z"/>
</svg>
