<?xml version="1.0" encoding="utf-8"?>
<!-- Generator: Adobe Illustrator 19.0.1, SVG Export Plug-In . SVG Version: 6.00 Build 0)  -->
<!DOCTYPE svg PUBLIC "-//W3C//DTD SVG 1.1//EN" "http://www.w3.org/Graphics/SVG/1.1/DTD/svg11.dtd">
<svg version="1.1" id="Layer_2" xmlns="http://www.w3.org/2000/svg" xmlns:xlink="http://www.w3.org/1999/xlink" x="0px" y="0px"
	 viewBox="0 0 14 14" enable-background="new 0 0 14 14" xml:space="preserve">
<path d="M11.3,3.2C10.9,2.9,10.3,3,10,3.4L6.1,8.5L4,6.3c-0.4-0.4-1-0.4-1.4,0s-0.4,1,0,1.4l3,3c0,0,0,0,0.1,0c0,0,0,0,0,0.1
	c0,0,0.1,0.1,0.2,0.1c0,0,0.1,0,0.1,0.1C6,11,6.1,11,6.2,11l0,0c0,0,0,0,0,0c0.1,0,0.3,0,0.4-0.1c0,0,0.1-0.1,0.1-0.1
	c0.1,0,0.1-0.1,0.2-0.1c0,0,0,0,0-0.1c0,0,0,0,0,0l4.5-6C11.9,4.2,11.8,3.5,11.3,3.2z"/>
</svg>
