<?xml version="1.0" encoding="utf-8"?>
<!-- Generator: Adobe Illustrator 19.0.1, SVG Export Plug-In . SVG Version: 6.00 Build 0)  -->
<!DOCTYPE svg PUBLIC "-//W3C//DTD SVG 1.1//EN" "http://www.w3.org/Graphics/SVG/1.1/DTD/svg11.dtd">
<svg version="1.1" id="Layer_2" xmlns="http://www.w3.org/2000/svg" xmlns:xlink="http://www.w3.org/1999/xlink" x="0px" y="0px"
	 viewBox="0 0 14 14" enable-background="new 0 0 14 14" xml:space="preserve">
<path d="M7,0C3.1,0,0,3.1,0,7s3.1,7,7,7s7-3.1,7-7S10.9,0,7,0z M7.5,13v-0.6C7.5,12.2,7.3,12,7,12s-0.5,0.2-0.5,0.3V13
	C3.6,12.7,1.3,10.4,1,7.5h0.6C1.8,7.5,2,7.3,2,7S1.8,6.5,1.7,6.5H1C1.3,3.6,3.6,1.3,6.5,1v0.6C6.5,1.8,6.7,2,7,2s0.5-0.2,0.5-0.3V1
	c2.9,0.2,5.2,2.5,5.5,5.5h-0.6C12.2,6.5,12,6.7,12,7s0.2,0.5,0.3,0.5H13C12.7,10.4,10.4,12.7,7.5,13z"/>
<path d="M9.7,3.9C9.5,3.7,9.1,3.7,9,3.9L7,6.4L5.9,5.3c-0.2-0.2-0.5-0.2-0.7,0C5,5.4,5,5.7,5.2,5.9l1.4,1.6c0,0,0,0,0,0c0,0,0,0,0,0
	c0,0,0,0,0.1,0c0,0,0,0,0.1,0c0.1,0,0.1,0,0.2,0l0,0l0,0c0.1,0,0.1,0,0.2,0c0,0,0,0,0.1,0c0,0,0.1,0,0.1-0.1c0,0,0,0,0,0
	c0,0,0,0,0,0l2.4-2.9C9.9,4.3,9.9,4,9.7,3.9z"/>
</svg>
