<?xml version="1.0" encoding="utf-8"?>
<!-- Generator: Adobe Illustrator 19.0.1, SVG Export Plug-In . SVG Version: 6.00 Build 0)  -->
<!DOCTYPE svg PUBLIC "-//W3C//DTD SVG 1.1//EN" "http://www.w3.org/Graphics/SVG/1.1/DTD/svg11.dtd">
<svg version="1.1" id="Layer_2" xmlns="http://www.w3.org/2000/svg" xmlns:xlink="http://www.w3.org/1999/xlink" x="0px" y="0px"
	 viewBox="0 0 14 14" enable-background="new 0 0 14 14" xml:space="preserve">
<path d="M12.3,2.4L12.3,2.4l-0.7-0.7l0,0C10.3,0.7,8.8,0,7,0C3.1,0,0,3.1,0,7c0,1.8,0.7,3.3,1.7,4.6l0,0l0.7,0.7l0,0
	C3.7,13.3,5.2,14,7,14c3.9,0,7-3.1,7-7C14,5.2,13.3,3.7,12.3,2.4z M2.4,10.9C1.5,9.8,1,8.5,1,7c0-3.3,2.7-6,6-6
	c1.5,0,2.8,0.5,3.9,1.4L2.4,10.9z M7,13c-1.5,0-2.8-0.5-3.9-1.4l8.4-8.4C12.5,4.2,13,5.5,13,7C13,10.3,10.3,13,7,13z"/>
</svg>
