<?xml version="1.0" encoding="utf-8"?>
<!-- Generator: Adobe Illustrator 19.0.1, SVG Export Plug-In . SVG Version: 6.00 Build 0)  -->
<!DOCTYPE svg PUBLIC "-//W3C//DTD SVG 1.1//EN" "http://www.w3.org/Graphics/SVG/1.1/DTD/svg11.dtd">
<svg version="1.1" id="Layer_2" xmlns="http://www.w3.org/2000/svg" xmlns:xlink="http://www.w3.org/1999/xlink" x="0px" y="0px"
	 viewBox="0 0 14 14" enable-background="new 0 0 14 14" xml:space="preserve">
<g>
	<circle cx="6.1" cy="5.2" r="0.6"/>
	<path d="M10.4,6.7L7.8,9.4c0.5-0.1,1-0.3,1.4-0.7C9.8,8.2,10.3,7.5,10.4,6.7z"/>
	<path d="M13.8,6.4c-0.4-0.6-0.8-1.2-1.4-1.6l-0.7,0.7c0.4,0.4,0.8,0.9,1.2,1.4c0,0.1,0,0.2,0,0.2c-1.1,1.6-2.6,2.8-4.5,3.2
		c-0.6,0.1-1.2,0.2-1.8,0.2l-0.9,0.9c0.4,0.1,0.8,0.1,1.3,0.1c0.3,0,0.6,0,0.9-0.1c2.5-0.4,4.4-1.7,5.8-3.8
		C14.1,7.2,14.1,6.8,13.8,6.4z"/>
	<path d="M12.3,1.7c-0.3-0.3-0.8-0.3-1.1,0L9.9,3.1C8.6,2.6,7.4,2.4,6,2.6C3.5,3,1.6,4.3,0.2,6.4c-0.3,0.4-0.3,0.8,0,1.2
		C0.5,8,0.8,8.4,1.1,8.8c0.5,0.6,1.1,1,1.7,1.4l-1,1c-0.3,0.3-0.3,0.8,0,1.1c0.1,0.1,0.3,0.2,0.5,0.2s0.4-0.1,0.5-0.2l9.5-9.5
		C12.6,2.5,12.6,2,12.3,1.7z M6.1,4c0.6,0,1.2,0.5,1.2,1.2S6.7,6.3,6.1,6.3S4.9,5.8,4.9,5.2S5.5,4,6.1,4z M2.4,8.7
		c-0.5-0.4-0.9-1-1.3-1.5C1,7.1,1,7,1.1,6.9c0.7-1.1,1.6-1.9,2.7-2.5c0,0,0.1,0,0.2-0.1C3.1,5.9,3.6,7.5,4.5,8.4l-1,1
		C3.1,9.2,2.8,9,2.4,8.7z"/>
</g>
</svg>
