<?xml version="1.0" encoding="utf-8"?>
<!-- Generator: Adobe Illustrator 19.0.1, SVG Export Plug-In . SVG Version: 6.00 Build 0)  -->
<!DOCTYPE svg PUBLIC "-//W3C//DTD SVG 1.1//EN" "http://www.w3.org/Graphics/SVG/1.1/DTD/svg11.dtd">
<svg version="1.1" id="Layer_2" xmlns="http://www.w3.org/2000/svg" xmlns:xlink="http://www.w3.org/1999/xlink" x="0px" y="0px"
	 viewBox="0 0 14 14" enable-background="new 0 0 14 14" xml:space="preserve">
<g>
	<path d="M13.5,1h-6V0L0,1.5v1.7V11v1.5L7.5,14v-1h6c0.3,0,0.5-0.2,0.5-0.5v-11C14,1.2,13.8,1,13.5,1z M4.7,10.2L3.8,8.7
		C3.7,8.5,3.6,8.3,3.5,8.1C3.4,8.2,3.3,8.3,3.2,8.5l-0.9,1.6L0.8,10l1.9-3L0.8,4.2L2.4,4l0.8,1.3c0.1,0.2,0.2,0.4,0.4,0.6
		c0.1-0.2,0.2-0.3,0.2-0.5l0.1-0.2l0.8-1.4l1.6-0.1L4.3,6.9l1.9,3.3L4.7,10.2z M13,12H7.5V2H13V12z"/>
	<rect x="10.5" y="3" width="1.5" height="1.5"/>
	<rect x="8" y="3" width="1.5" height="1.5"/>
	<rect x="10.5" y="5" width="1.5" height="1.5"/>
	<rect x="8" y="5" width="1.5" height="1.5"/>
	<rect x="10.5" y="7" width="1.5" height="1.5"/>
	<rect x="8" y="7" width="1.5" height="1.5"/>
	<rect x="10.5" y="9" width="1.5" height="1.5"/>
	<rect x="8" y="9" width="1.5" height="1.5"/>
</g>
</svg>
