<?xml version="1.0" encoding="utf-8"?>
<!-- Generator: Adobe Illustrator 19.0.1, SVG Export Plug-In . SVG Version: 6.00 Build 0)  -->
<!DOCTYPE svg PUBLIC "-//W3C//DTD SVG 1.1//EN" "http://www.w3.org/Graphics/SVG/1.1/DTD/svg11.dtd">
<svg version="1.1" id="Layer_2" xmlns="http://www.w3.org/2000/svg" xmlns:xlink="http://www.w3.org/1999/xlink" x="0px" y="0px"
	 viewBox="0 0 14 14" enable-background="new 0 0 14 14" xml:space="preserve">
<path d="M13,0h-1.5h-9H1C0.4,0,0,0.4,0,1v12c0,0.6,0.4,1,1,1h12c0.6,0,1-0.4,1-1V1C14,0.4,13.6,0,13,0z M10.5,1v4.5h-7V1H10.5z
	 M8.5,13H6v-1.5C6,11.2,5.7,11,5.5,11h-1C4.3,11,4,11.2,4,11.5V13H3.5v-2.5h5V13z M13,13.5V13H9.5V9.5h-7V13H1V1h1.5v5.5h9V1H13v12
	h0L13,13.5z"/>
</svg>
