<?xml version="1.0" encoding="utf-8"?>
<!-- Generator: Adobe Illustrator 19.0.1, SVG Export Plug-In . SVG Version: 6.00 Build 0)  -->
<!DOCTYPE svg PUBLIC "-//W3C//DTD SVG 1.1//EN" "http://www.w3.org/Graphics/SVG/1.1/DTD/svg11.dtd">
<svg version="1.1" id="Layer_2" xmlns="http://www.w3.org/2000/svg" xmlns:xlink="http://www.w3.org/1999/xlink" x="0px" y="0px"
	 viewBox="0 0 14 14" enable-background="new 0 0 14 14" xml:space="preserve">
<g>
	<path d="M14,4.7c0,1,0,2,0,3.1c0,0.2,0,0.4-0.2,0.5c-0.9,0.5-1.8,0.9-2.9,1.1c-0.6,0.1-1.1-0.1-1.7-0.3C8.6,8.8,8.1,8.5,7.5,8.4
		C6.6,8.1,5.7,8.2,4.9,8.5c-0.7,0.2-1.3,0.5-2,0.9C2.4,9.6,2,9.4,2,8.9c0-2,0-3.9,0-5.9c0-0.3,0.1-0.5,0.3-0.6
		C3.4,1.7,4.6,1.2,5.9,1c1.1-0.1,2.1,0.1,3,0.6c0.2,0.1,0.3,0.1,0.5,0.2c0.7,0.4,1.5,0.4,2.3,0c0.4-0.2,0.8-0.4,1.2-0.6
		c0.1-0.1,0.2-0.1,0.4-0.2c0.4-0.2,0.8,0,0.8,0.5C14,2.6,14,3.7,14,4.7z M9.8,6.7c0,0.3,0,0.6,0,0.9c0,0.2-0.1,0.6,0,0.6
		c0.2,0.1,0.5,0.1,0.8,0.2c0,0,0.1,0,0.1,0c0.7-0.1,1.4-0.3,2.1-0.7c0.1,0,0.1-0.1,0.1-0.2C13,7,13,6.5,13,6c-0.1,0-0.2,0.1-0.2,0.1
		c-0.7,0.3-1.4,0.6-2.1,0.6C10.4,6.7,10.1,6.7,9.8,6.7c0-0.6,0-1.2,0-1.9c0.2,0,0.3,0.1,0.4,0.1c1,0.1,1.8-0.3,2.7-0.8
		C12.9,4,13,4,13,3.9c0-0.5,0-1,0-1.5C12,3,11,3.3,9.8,3.1c0,0.5,0,1.1,0,1.7C8.7,4.2,7.5,3.6,6.2,3.7c0-0.5,0-1.1,0-1.6
		c-1.1,0.1-2.1,0.5-3,1c0,0-0.1,0.1-0.1,0.2c0,0.5,0,1,0,1.5c1-0.5,2-0.9,3.1-1c0,0.6,0,1.2,0,1.9c-0.1,0-0.1,0-0.2,0
		C5,5.7,4.1,6,3.2,6.5c-0.1,0-0.2,0.1-0.2,0.2c0,0.5,0,0.9,0,1.4c1-0.5,2-0.8,3.1-0.9c0-0.6,0-1.1,0-1.6C7.5,5.5,8.7,6.1,9.8,6.7z"
		/>
</g>
<g>
	<path d="M0.8,14C0.3,14,0,13.7,0,13.3V0.8C0,0.3,0.3,0,0.8,0s0.8,0.3,0.8,0.8v12.5C1.5,13.7,1.2,14,0.8,14z"/>
</g>
</svg>
