<?xml version="1.0" encoding="utf-8"?>
<!-- Generator: Adobe Illustrator 19.0.1, SVG Export Plug-In . SVG Version: 6.00 Build 0)  -->
<!DOCTYPE svg PUBLIC "-//W3C//DTD SVG 1.1//EN" "http://www.w3.org/Graphics/SVG/1.1/DTD/svg11.dtd">
<svg version="1.1" id="Layer_2" xmlns="http://www.w3.org/2000/svg" xmlns:xlink="http://www.w3.org/1999/xlink" x="0px" y="0px"
	 viewBox="0 0 14 14" enable-background="new 0 0 14 14" xml:space="preserve">
<g>
	<path d="M0.8,14C0.3,14,0,13.7,0,13.3V0.8C0,0.3,0.3,0,0.8,0s0.8,0.3,0.8,0.8v12.5C1.5,13.7,1.2,14,0.8,14z"/>
</g>
<g>
	<path d="M14,4.7c0,1,0,2.1,0,3.1c0,0.2,0,0.4-0.2,0.5c-0.9,0.5-1.8,0.9-2.9,1.1C10.3,9.4,9.7,9.3,9.1,9C8.6,8.8,8.1,8.5,7.5,8.4
		C6.6,8.1,5.7,8.2,4.9,8.5c-0.7,0.2-1.3,0.5-2,0.9C2.4,9.6,2,9.4,2,8.9c0-2,0-4,0-5.9c0-0.3,0.1-0.5,0.3-0.6C3.4,1.7,4.6,1.2,5.9,1
		c1-0.1,2,0.1,3,0.6C9,1.6,9.2,1.7,9.4,1.8c0.7,0.4,1.5,0.4,2.3,0.1c0.5-0.2,1-0.5,1.4-0.7C13.6,0.8,14,1,14,1.7
		C14,2.7,14,3.7,14,4.7z M13,2.4c-0.2,0.1-0.4,0.2-0.5,0.3c-1.2,0.5-2.3,0.7-3.5,0C8.1,2.3,7.2,2,6.3,2.1c-1.1,0-2.1,0.4-3,0.9
		C3.1,3.1,3,3.2,3,3.4c0,1.2,0,2.3,0,3.5c0,0.4,0,0.8,0,1.3c0.4-0.2,0.8-0.3,1.2-0.5C5.4,7.2,6.5,7,7.7,7.3c0.6,0.2,1.3,0.5,1.9,0.8
		c0.5,0.2,0.9,0.3,1.4,0.3c0.6-0.1,1.2-0.3,1.8-0.6C12.9,7.6,13,7.5,13,7.3c0-0.9,0-1.9,0-2.8C13,3.8,13,3.1,13,2.4z"/>
</g>
</svg>
