<?xml version="1.0" encoding="utf-8"?>
<!-- Generator: Adobe Illustrator 19.0.1, SVG Export Plug-In . SVG Version: 6.00 Build 0)  -->
<!DOCTYPE svg PUBLIC "-//W3C//DTD SVG 1.1//EN" "http://www.w3.org/Graphics/SVG/1.1/DTD/svg11.dtd">
<svg version="1.1" id="Layer_2" xmlns="http://www.w3.org/2000/svg" xmlns:xlink="http://www.w3.org/1999/xlink" x="0px" y="0px"
	 viewBox="0 0 14 14" enable-background="new 0 0 14 14" xml:space="preserve">
<g>
	<circle cx="2.5" cy="2.9" r="1.6"/>
	<circle cx="11.5" cy="2.9" r="1.6"/>
	<path d="M13.4,5.1h-0.7c-0.3,0.4-0.7,0.6-1.2,0.6s-0.9-0.2-1.2-0.6H9.7C9.6,5.6,9.4,6,9.1,6.4L9.1,7h1c0.8,0,1.4,0.7,1.4,1.5l0,0.3
		h2.2l0.3-3C14,5.4,13.8,5.1,13.4,5.1z"/>
	<circle cx="7" cy="4.5" r="2.3"/>
	<path d="M10.1,7.5H9c-0.5,0.6-1.2,1-2,1c-0.8,0-1.5-0.4-2-1H3.9C3.4,7.5,3,7.9,3,8.4l0.5,4.2h7L11,8.4C11,7.9,10.6,7.5,10.1,7.5z"
		/>
	<path d="M3.9,7h1l0.1-0.6C4.6,6,4.4,5.6,4.3,5.1H3.7C3.4,5.5,3,5.8,2.5,5.8S1.6,5.5,1.3,5.1H0.6C0.2,5.1,0,5.4,0,5.8l0.3,3h2.2
		l0-0.2C2.5,7.6,3.1,7,3.9,7z"/>
</g>
</svg>
