<?xml version="1.0" encoding="utf-8"?>
<!-- Generator: Adobe Illustrator 19.0.1, SVG Export Plug-In . SVG Version: 6.00 Build 0)  -->
<!DOCTYPE svg PUBLIC "-//W3C//DTD SVG 1.1//EN" "http://www.w3.org/Graphics/SVG/1.1/DTD/svg11.dtd">
<svg version="1.1" id="Layer_2" xmlns="http://www.w3.org/2000/svg" xmlns:xlink="http://www.w3.org/1999/xlink" x="0px" y="0px"
	 viewBox="0 0 14 14" enable-background="new 0 0 14 14" xml:space="preserve">
<path d="M14,7.6h-3.1L9.5,4.9C9.4,4.7,9.2,4.6,8.9,4.7c-0.2,0-0.5,0.2-0.6,0.4L6.8,9.5L5.5,1.5C5.4,1.2,5.1,1,4.8,1
	C4.5,1,4.2,1.2,4.1,1.5L2.6,7.6H0v1.1h3.1c0.3,0,0.6-0.2,0.7-0.5l0.8-4.1l1.2,7.4c0.1,0.3,0.3,0.5,0.6,0.5c0,0,0.1,0,0.1,0
	c0.3,0,0.5-0.1,0.6-0.4l1.9-5.1l0.8,1.9c0.1,0.2,0.3,0.3,0.6,0.3H14V7.6z"/>
</svg>
