<?xml version="1.0" encoding="utf-8"?>
<!-- Generator: Adobe Illustrator 19.0.1, SVG Export Plug-In . SVG Version: 6.00 Build 0)  -->
<!DOCTYPE svg PUBLIC "-//W3C//DTD SVG 1.1//EN" "http://www.w3.org/Graphics/SVG/1.1/DTD/svg11.dtd">
<svg version="1.1" id="Layer_2" xmlns="http://www.w3.org/2000/svg" xmlns:xlink="http://www.w3.org/1999/xlink" x="0px" y="0px"
	 viewBox="0 0 14 14" enable-background="new 0 0 14 14" xml:space="preserve">
<path d="M13.3,9h-2.9l0.8-4h2.1C13.7,5,14,4.7,14,4.2s-0.3-0.8-0.8-0.8h-1.8L12,0.9c0.1-0.4-0.2-0.8-0.6-0.9
	c-0.4-0.1-0.8,0.2-0.9,0.6L9.9,3.5H5.5L6,0.9C6.1,0.5,5.8,0.1,5.4,0C5-0.1,4.6,0.2,4.5,0.6L3.9,3.5H0.8C0.3,3.5,0,3.8,0,4.2
	S0.3,5,0.8,5h2.9L2.8,9H0.8C0.3,9,0,9.3,0,9.7s0.3,0.8,0.8,0.8h1.8L2,13.1c-0.1,0.4,0.2,0.8,0.6,0.9c0,0,0.1,0,0.1,0
	c0.3,0,0.7-0.2,0.7-0.6l0.6-2.9h4.5L8,13.1c-0.1,0.4,0.2,0.8,0.6,0.9c0,0,0.1,0,0.1,0c0.3,0,0.7-0.2,0.7-0.6l0.6-2.9h3.2
	c0.4,0,0.8-0.3,0.8-0.8S13.7,9,13.3,9z M4.4,9l0.8-4h4.5L8.8,9H4.4z"/>
</svg>
