<?xml version="1.0" encoding="utf-8"?>
<!-- Generator: Adobe Illustrator 19.0.1, SVG Export Plug-In . SVG Version: 6.00 Build 0)  -->
<!DOCTYPE svg PUBLIC "-//W3C//DTD SVG 1.1//EN" "http://www.w3.org/Graphics/SVG/1.1/DTD/svg11.dtd">
<svg version="1.1" id="Layer_2" xmlns="http://www.w3.org/2000/svg" xmlns:xlink="http://www.w3.org/1999/xlink" x="0px" y="0px"
	 viewBox="0 0 14 14" enable-background="new 0 0 14 14" xml:space="preserve">
<g>
	<path d="M2.8,7.6l1.5-3.3C4.4,4.1,4.6,4,4.8,4C5,4,5.2,4.2,5.3,4.4l1.5,3.8L8.5,5c0.1-0.1,0.2-0.2,0.4-0.3c0.2,0,0.3,0.1,0.4,0.2
		l1.4,2.7h2.2C13.6,6.5,14,5.4,14,4.3C14,1.9,12.2,0,10,0C8.8,0,7.6,0.8,7,1.8C6.4,0.8,5.2,0,4,0C1.8,0,0,1.9,0,4.3
		c0,1.1,0.4,2.2,1.1,3.3H2.8z"/>
	<path d="M10.5,8.6c-0.2,0-0.3-0.1-0.4-0.2L9,6.1L7,9.7C6.9,9.9,6.7,10,6.5,10c0,0,0,0-0.1,0c-0.2,0-0.4-0.2-0.4-0.4L4.7,6.2
		L3.6,8.3C3.5,8.5,3.3,8.6,3.1,8.6H1.7C3.8,11.6,7,14,7,14s3.2-2.4,5.3-5.4H10.5z"/>
</g>
</svg>
