<?xml version="1.0" encoding="utf-8"?>
<!-- Generator: Adobe Illustrator 19.0.1, SVG Export Plug-In . SVG Version: 6.00 Build 0)  -->
<!DOCTYPE svg PUBLIC "-//W3C//DTD SVG 1.1//EN" "http://www.w3.org/Graphics/SVG/1.1/DTD/svg11.dtd">
<svg version="1.1" id="Layer_2" xmlns="http://www.w3.org/2000/svg" xmlns:xlink="http://www.w3.org/1999/xlink" x="0px" y="0px"
	 viewBox="0 0 14 14" enable-background="new 0 0 14 14" xml:space="preserve">
<path fill-rule="evenodd" clip-rule="evenodd" d="M7,7c0.3-0.8,0.6-1.6,1.5-2.5c-1.8,0-2-1-3.5-1c0.8,1,1.8,2.9,1.8,3.7
	c-0.1,2-1.6,2.5-2.3,4.8c1.8,0,3.4,0,5,0C8.8,9.5,7,9.2,7,7z"/>
<path d="M8.9,7c1.8-1,3.3-3.3,4-6.4C12.9,0.3,12.7,0,12.4,0H1.6C1.3,0,1.1,0.3,1.1,0.6C1.8,3.7,3.3,6,5.1,7c-1.8,1-3.3,3.3-4,6.4
	C1.1,13.7,1.3,14,1.6,14h10.8c0.3,0,0.6-0.3,0.5-0.6C12.2,10.3,10.7,8,8.9,7z M3.1,13c-0.3,0-0.6-0.3-0.5-0.6C3.3,9.8,4.4,8.1,6,7.5
	v-1C4.4,5.9,3.3,4.2,2.6,1.6C2.6,1.3,2.8,1,3.1,1h7.7c0.3,0,0.6,0.3,0.5,0.6C10.7,4.2,9.6,5.9,8,6.5v1c1.6,0.6,2.7,2.3,3.4,4.9
	c0.1,0.3-0.2,0.6-0.5,0.6H3.1z"/>
</svg>
