<?xml version="1.0" encoding="utf-8"?>
<!-- Generator: Adobe Illustrator 19.0.1, SVG Export Plug-In . SVG Version: 6.00 Build 0)  -->
<!DOCTYPE svg PUBLIC "-//W3C//DTD SVG 1.1//EN" "http://www.w3.org/Graphics/SVG/1.1/DTD/svg11.dtd">
<svg version="1.1" id="Layer_2" xmlns="http://www.w3.org/2000/svg" xmlns:xlink="http://www.w3.org/1999/xlink" x="0px" y="0px"
	 viewBox="0 0 14 14" enable-background="new 0 0 14 14" xml:space="preserve">
<g>
	<path d="M13.6,5.7l-6-5c0,0-0.1,0-0.1-0.1c-0.1,0-0.1-0.1-0.2-0.1c-0.1,0-0.1,0-0.2-0.1c-0.1,0-0.1,0-0.2,0c-0.1,0-0.1,0-0.2,0
		c-0.1,0-0.1,0-0.2,0.1c-0.1,0-0.1,0.1-0.2,0.1c0,0-0.1,0-0.1,0.1l-6,5c-0.4,0.4-0.5,1-0.1,1.4C0.4,7.4,0.7,7.5,1,7.5
		c0.2,0,0.5-0.1,0.6-0.2L7,2.8l5.4,4.5c0.2,0.2,0.4,0.2,0.6,0.2c0.3,0,0.6-0.1,0.8-0.4C14.1,6.7,14.1,6.1,13.6,5.7z"/>
	<path d="M2.5,7.6v4.9c0,0.6,0.4,1,1,1h2v-4h3v4h2c0.6,0,1-0.4,1-1V7.6L7,3.8L2.5,7.6z"/>
</g>
</svg>
