<?xml version="1.0" encoding="utf-8"?>
<!-- Generator: Adobe Illustrator 19.0.1, SVG Export Plug-In . SVG Version: 6.00 Build 0)  -->
<!DOCTYPE svg PUBLIC "-//W3C//DTD SVG 1.1//EN" "http://www.w3.org/Graphics/SVG/1.1/DTD/svg11.dtd">
<svg version="1.1" id="Layer_2" xmlns="http://www.w3.org/2000/svg" xmlns:xlink="http://www.w3.org/1999/xlink" x="0px" y="0px"
	 viewBox="0 0 14 14" enable-background="new 0 0 14 14" xml:space="preserve">
<path d="M13.7,5.8c-0.1-0.7-0.4-1.5-0.9-2.3l-0.2-0.3c-1.5-2.3-4.1-3.5-6.8-3C4.4,0.6,3,1.4,2,2.5L0.9,1.3C0.5,1,0,1.2,0,1.6V6h4.4
	C4.8,6,5,5.5,4.7,5.1L3.4,3.9c0.7-0.8,1.7-1.4,2.8-1.6C8.1,2,9.9,2.8,11,4.4l0.1,0.2c0.3,0.5,0.5,1.1,0.6,1.6
	c0.2,1.3-0.1,2.5-0.8,3.5s-1.8,1.7-3.1,1.9c-0.5,0.1-0.9,0.6-0.8,1.2c0.1,0.5,0.5,0.8,1,0.8c0.1,0,0.1,0,0.2,0
	c1.8-0.3,3.3-1.3,4.4-2.8S14,7.6,13.7,5.8z"/>
<path d="M4.3,10.2c0.2,0.2,0.5,0.1,0.7-0.1l2-2.5l1.1,1.1C8.2,9,8.6,9,8.8,8.8C9,8.6,9,8.3,8.8,8.1L7.3,6.5c0,0,0,0,0,0c0,0,0,0,0,0
	c0,0,0,0-0.1,0c0,0,0,0-0.1,0c-0.1,0-0.1,0-0.2,0l0,0l0,0c-0.1,0-0.1,0-0.2,0c0,0,0,0-0.1,0c0,0-0.1,0-0.1,0.1c0,0,0,0,0,0
	c0,0,0,0,0,0L4.2,9.5C4.1,9.7,4.1,10,4.3,10.2z"/>
</svg>
