<?xml version="1.0" encoding="utf-8"?>
<!-- Generator: Adobe Illustrator 19.0.1, SVG Export Plug-In . SVG Version: 6.00 Build 0)  -->
<!DOCTYPE svg PUBLIC "-//W3C//DTD SVG 1.1//EN" "http://www.w3.org/Graphics/SVG/1.1/DTD/svg11.dtd">
<svg version="1.1" id="Layer_2" xmlns="http://www.w3.org/2000/svg" xmlns:xlink="http://www.w3.org/1999/xlink" x="0px" y="0px"
	 viewBox="0 0 14 14" enable-background="new 0 0 14 14" xml:space="preserve">
<g>
	<circle cx="6.3" cy="5.5" r="0.8"/>
	<circle cx="2.8" cy="9.5" r="0.5"/>
	<path d="M14,11.2c-0.3-1.8-0.4-2.1-0.5-3C7.2,9.7,4.7,8.1,5,4.2c2.2,0,4.7,0,7,0C10.3,2,8.8,0.7,6,0.7c-1.8,0-6,1.8-6,6
		c0,2.4,1.7,4.5,2.5,4.5C6.4,11.2,9.7,11.2,14,11.2z M1.8,9.5c0-0.6,0.4-1,1-1s1,0.4,1,1s-0.4,1-1,1S1.8,10.1,1.8,9.5z"/>
	<path d="M2.5,12.7c0,0.3,0.3,0.5,0.6,0.5H14v-1H3.1C2.8,12.2,2.5,12.5,2.5,12.7z"/>
</g>
</svg>
