<?xml version="1.0" encoding="utf-8"?>
<!-- Generator: Adobe Illustrator 19.0.1, SVG Export Plug-In . SVG Version: 6.00 Build 0)  -->
<!DOCTYPE svg PUBLIC "-//W3C//DTD SVG 1.1//EN" "http://www.w3.org/Graphics/SVG/1.1/DTD/svg11.dtd">
<svg version="1.1" id="Layer_2" xmlns="http://www.w3.org/2000/svg" xmlns:xlink="http://www.w3.org/1999/xlink" x="0px" y="0px"
	 viewBox="0 0 14 14" enable-background="new 0 0 14 14" xml:space="preserve">
<path d="M7,0C3.1,0,0,3.1,0,7c0,3.9,3.1,7,7,7s7-3.1,7-7C14,3.1,10.9,0,7,0z M7,1.7c0.7,0,1.2,0.6,1.2,1.3c0,0.7-0.6,1.3-1.2,1.3
	S5.8,3.7,5.8,3C5.8,2.3,6.3,1.7,7,1.7z M9.8,11.7H5.3c-0.3,0-0.5-0.2-0.5-0.5s0.2-0.5,0.5-0.5h0.5V6.2H5.3C5,6.2,4.8,6,4.8,5.7
	S5,5.2,5.3,5.2h3v5.5h1.5c0.3,0,0.5,0.2,0.5,0.5S10,11.7,9.8,11.7z"/>
</svg>
