<?xml version="1.0" encoding="utf-8"?>
<!-- Generator: Adobe Illustrator 19.0.1, SVG Export Plug-In . SVG Version: 6.00 Build 0)  -->
<!DOCTYPE svg PUBLIC "-//W3C//DTD SVG 1.1//EN" "http://www.w3.org/Graphics/SVG/1.1/DTD/svg11.dtd">
<svg version="1.1" id="Layer_2" xmlns="http://www.w3.org/2000/svg" xmlns:xlink="http://www.w3.org/1999/xlink" x="0px" y="0px"
	 viewBox="0 0 14 14" enable-background="new 0 0 14 14" xml:space="preserve">
<g>
	<g>
		<path d="M9.5,5.6L5.4,9.7C5.1,10,4.6,10,4.3,9.7C4,9.4,4,8.9,4.3,8.6l4.1-4.1c0.3-0.3,0.8-0.3,1.1,0C9.8,4.8,9.8,5.3,9.5,5.6z"/>
	</g>
	<g>
		<path d="M4.2,12c-0.6,0.6-1.5,0.6-2.1,0L2,11.9c-0.6-0.6-0.6-1.5,0-2.1l3.4-3.4c-1-0.3-2.1,0-2.9,0.8L0.9,8.7
			c-1.2,1.2-1.2,3.1,0,4.3L1,13.1c1.2,1.2,3.1,1.2,4.3,0l1.6-1.6c0.8-0.8,1-1.9,0.8-2.9L4.2,12z"/>
	</g>
	<g>
		<path d="M8.7,0.9L7.2,2.5c-0.8,0.8-1,1.9-0.8,2.9L9.8,2c0.6-0.6,1.5-0.6,2.1,0L12,2.1c0.6,0.6,0.6,1.5,0,2.1L8.6,7.6
			c1,0.3,2.1,0,2.9-0.8l1.6-1.6c1.2-1.2,1.2-3.1,0-4.3L13,0.9C11.8-0.3,9.9-0.3,8.7,0.9z"/>
	</g>
</g>
</svg>
