<?xml version="1.0" encoding="utf-8"?>
<!-- Generator: Adobe Illustrator 19.0.1, SVG Export Plug-In . SVG Version: 6.00 Build 0)  -->
<!DOCTYPE svg PUBLIC "-//W3C//DTD SVG 1.1//EN" "http://www.w3.org/Graphics/SVG/1.1/DTD/svg11.dtd">
<svg version="1.1" id="Layer_2" xmlns="http://www.w3.org/2000/svg" xmlns:xlink="http://www.w3.org/1999/xlink" x="0px" y="0px"
	 viewBox="0 0 14 14" enable-background="new 0 0 14 14" xml:space="preserve">
<g>
	<path d="M12.3,0H8.5v1.5h3.8c0.1,0,0.2,0.1,0.2,0.2v10.7c0,0.1-0.1,0.2-0.2,0.2H8.5V14h3.8c0.9,0,1.7-0.7,1.7-1.7V1.7
		C14,0.7,13.2,0,12.3,0z"/>
	<path d="M4.4,1.1C4,0.8,3.5,1,3.5,1.5v3H0.6C0.3,4.5,0,4.8,0,5.1v3.8c0,0.3,0.3,0.6,0.6,0.6h2.9v3c0,0.4,0.5,0.7,0.9,0.3L10,7
		L4.4,1.1z"/>
</g>
</svg>
