<?xml version="1.0" encoding="utf-8"?>
<!-- Generator: Adobe Illustrator 19.0.1, SVG Export Plug-In . SVG Version: 6.00 Build 0)  -->
<!DOCTYPE svg PUBLIC "-//W3C//DTD SVG 1.1//EN" "http://www.w3.org/Graphics/SVG/1.1/DTD/svg11.dtd">
<svg version="1.1" id="Layer_2" xmlns="http://www.w3.org/2000/svg" xmlns:xlink="http://www.w3.org/1999/xlink" x="0px" y="0px"
	 viewBox="0 0 14 14" enable-background="new 0 0 14 14" xml:space="preserve">
<g>
	<path d="M1.5,12.3V1.7c0-0.1,0.1-0.2,0.2-0.2h3.8V0H1.7C0.8,0,0,0.7,0,1.7v10.7C0,13.3,0.8,14,1.7,14h3.8v-1.5H1.7
		C1.6,12.5,1.5,12.4,1.5,12.3z"/>
	<path d="M8.4,1.1C8,0.8,7.5,1,7.5,1.5v3H4.6C4.3,4.5,4,4.8,4,5.1v3.8c0,0.3,0.3,0.6,0.6,0.6h2.9v3c0,0.4,0.5,0.7,0.9,0.3L14,7
		L8.4,1.1z"/>
</g>
</svg>
