<?xml version="1.0" encoding="utf-8"?>
<!-- Generator: Adobe Illustrator 19.0.1, SVG Export Plug-In . SVG Version: 6.00 Build 0)  -->
<!DOCTYPE svg PUBLIC "-//W3C//DTD SVG 1.1//EN" "http://www.w3.org/Graphics/SVG/1.1/DTD/svg11.dtd">
<svg version="1.1" id="Layer_2" xmlns="http://www.w3.org/2000/svg" xmlns:xlink="http://www.w3.org/1999/xlink" x="0px" y="0px"
	 viewBox="0 0 14 14" enable-background="new 0 0 14 14" xml:space="preserve">
<path fill-rule="evenodd" clip-rule="evenodd" d="M7.5,4.8c0,0.1,0,0.1,0,0.2c0,2.1,1.3,3.9,3.1,4.5c0.1-0.3,0.2-0.7,0.2-1
	C10.8,6.6,9.3,5,7.5,4.8z"/>
<path d="M10,3.9V0H9v3.4C8.7,3.3,8.3,3.2,8,3.1V0H6v3.1C5.7,3.2,5.3,3.3,5,3.4V0H4v3.9c-1.5,1-2.5,2.7-2.5,4.6C1.5,11.5,4,14,7,14
	s5.5-2.5,5.5-5.5C12.5,6.6,11.5,4.9,10,3.9z M7,13c-2.5,0-4.5-2-4.5-4.5S4.5,4,7,4s4.5,2,4.5,4.5S9.5,13,7,13z"/>
<path fill-rule="evenodd" clip-rule="evenodd" d="M6.2,5c0-0.1,0-0.1,0-0.2c-1.7,0.4-3,1.9-3,3.7c0,2.1,1.7,3.8,3.8,3.8
	c1.7,0,3.1-1.1,3.6-2.7C8.1,9.5,6.2,7.5,6.2,5z"/>
</svg>
