<?xml version="1.0" encoding="utf-8"?>
<!-- Generator: Adobe Illustrator 19.0.1, SVG Export Plug-In . SVG Version: 6.00 Build 0)  -->
<!DOCTYPE svg PUBLIC "-//W3C//DTD SVG 1.1//EN" "http://www.w3.org/Graphics/SVG/1.1/DTD/svg11.dtd">
<svg version="1.1" id="Layer_2" xmlns="http://www.w3.org/2000/svg" xmlns:xlink="http://www.w3.org/1999/xlink" x="0px" y="0px"
	 viewBox="0 0 14 14" enable-background="new 0 0 14 14" xml:space="preserve">
<g>
	<circle cx="7" cy="7" r="3.3"/>
	<path d="M6.4,12.5C3.6,12.1,1.5,9.8,1.5,7c0-1.9,0.9-3.5,2.4-4.6l0.9,0.9c0.2,0.2,0.6,0.1,0.6-0.3V0H2.4C2,0,1.9,0.4,2.1,0.6
		l0.8,0.8C1.1,2.7,0,4.7,0,7c0,3.6,2.7,6.5,6.1,6.9C6.6,14,7,13.7,7,13.2C7,12.8,6.7,12.5,6.4,12.5z"/>
	<path d="M14,7c0-3.6-2.7-6.5-6.1-6.9C7.4,0,7,0.4,7,0.8c0,0.4,0.3,0.7,0.6,0.7c2.7,0.3,4.9,2.6,4.9,5.5c0,1.9-0.9,3.5-2.4,4.6l-1-1
		c-0.2-0.2-0.6-0.1-0.6,0.3V14h3.1c0.3,0,0.5-0.4,0.3-0.6l-0.8-0.8C12.9,11.3,14,9.3,14,7z"/>
</g>
</svg>
