<?xml version="1.0" encoding="utf-8"?>
<!-- Generator: Adobe Illustrator 19.0.1, SVG Export Plug-In . SVG Version: 6.00 Build 0)  -->
<!DOCTYPE svg PUBLIC "-//W3C//DTD SVG 1.1//EN" "http://www.w3.org/Graphics/SVG/1.1/DTD/svg11.dtd">
<svg version="1.1" id="Layer_2" xmlns="http://www.w3.org/2000/svg" xmlns:xlink="http://www.w3.org/1999/xlink" x="0px" y="0px"
	 viewBox="0 0 14 14" enable-background="new 0 0 14 14" xml:space="preserve">
<path d="M9.5,5.5V2h-5v2H0v7.5C0,11.8,0.2,12,0.5,12h4h5h4c0.3,0,0.5-0.2,0.5-0.5v-6H9.5z M4,7.3c0,0.1,0,0.1,0,0.2
	c0,0.1,0,0.1,0,0.2c0,0,0,0.1-0.1,0.2c0,0.1-0.1,0.2-0.1,0.2C3.7,8.1,3.7,8.1,3.6,8.2C3.5,8.3,3.4,8.4,3.3,8.5
	C3.2,8.6,3.1,8.7,3,8.8l-1.2,1H4v0.7H1.7c0,0,0,0,0,0c0,0,0,0,0,0c0,0,0,0,0,0c0,0,0,0,0,0c-0.1,0-0.2,0-0.2,0
	c-0.1,0-0.1-0.1-0.2-0.1c-0.1-0.1-0.1-0.1-0.1-0.2c0-0.1,0-0.1,0-0.2c0,0,0,0,0,0c0,0,0,0,0,0c0,0,0,0,0,0c0,0,0,0,0,0c0,0,0,0,0,0
	c0,0,0,0,0-0.1c0,0,0,0,0-0.1c0,0,0,0,0-0.1c0,0,0,0,0.1-0.1c0,0,0,0,0.1-0.1L2.9,8C2.9,8,3,7.9,3,7.9c0.1-0.1,0.1-0.1,0.2-0.2
	c0.1-0.1,0.1-0.2,0.1-0.3c0-0.1,0-0.2,0-0.3c0-0.1,0-0.2-0.1-0.3c0-0.1-0.1-0.2-0.2-0.3C3.1,6.4,3,6.3,2.9,6.2
	c-0.1,0-0.2-0.1-0.4-0.1c-0.1,0-0.2,0-0.3,0.1C2.1,6.3,2,6.3,1.9,6.4C1.8,6.5,1.8,6.6,1.7,6.7c0,0.1-0.1,0.2-0.1,0.3c0,0,0,0,0,0
	c0,0,0,0,0,0c0,0,0,0,0,0c0,0,0,0,0,0c0,0,0,0,0,0c0,0,0,0,0,0c0,0.1,0,0.3,0,0.3L1.2,8c0,0-0.1-0.2-0.2-0.4C1.1,7.4,1,7.3,1,7.1v0
	c0-0.2,0-0.4,0.1-0.6C1.2,6.3,1.3,6.2,1.4,6c0.1-0.2,0.3-0.3,0.5-0.4c0.2-0.1,0.4-0.1,0.6-0.1c0.2,0,0.4,0,0.6,0.1
	c0.2,0.1,0.3,0.1,0.4,0.3C3.6,6,3.7,6.1,3.8,6.2c0.1,0.1,0.1,0.3,0.2,0.4c0,0,0,0,0,0.1c0,0,0,0,0,0.1c0,0,0,0,0,0.1c0,0,0,0,0,0.1
	C4,6.9,4,7,4,7c0,0,0,0.1,0,0.1C4,7.2,4,7.2,4,7.3z M8,9.5H7.1V5.1H6l0.3-0.6H8V9.5z M13,9.7C13,9.7,13,9.7,13,9.7
	C13,9.7,13,9.7,13,9.7C13,9.7,13,9.7,13,9.7C13,9.7,13,9.7,13,9.7c0,0.3,0,0.5-0.1,0.7c-0.1,0.2-0.2,0.3-0.3,0.5
	c-0.1,0.1-0.3,0.2-0.4,0.3c-0.2,0.1-0.3,0.1-0.5,0.1H10v-0.6h1.5c0,0,0,0,0,0c0,0,0,0,0,0c0,0,0,0,0,0c0,0,0,0,0,0c0,0,0,0,0,0
	c0.1,0,0.3,0,0.4-0.1c0.1,0,0.2-0.1,0.3-0.2c0.1-0.1,0.1-0.2,0.2-0.3c0-0.1,0.1-0.2,0.1-0.3c0-0.1,0-0.2-0.1-0.3
	c0-0.1-0.1-0.2-0.2-0.3C12.1,9,12,9,11.9,8.9c-0.1,0-0.3-0.1-0.4-0.1l-1,0l0.2-0.7L12,6.9h-1.9V6.2H12c0.1,0,0.3,0,0.3,0.1
	c0.1,0,0.2,0.1,0.2,0.1c0,0.1,0.1,0.1,0.1,0.2c0,0.1,0,0.1,0,0.2c0,0,0,0,0,0v0c0,0.1,0,0.1,0,0.2c0,0.1-0.1,0.1-0.1,0.2
	c0,0.1-0.1,0.1-0.1,0.2c-0.1,0.1-0.1,0.1-0.2,0.2l-0.9,0.7c0.2,0,0.5,0,0.7,0.1c0.2,0.1,0.3,0.1,0.5,0.3c0.1,0.1,0.3,0.3,0.3,0.4
	C13,9.2,13,9.4,13,9.7C13,9.6,13,9.7,13,9.7z"/>
</svg>
