<?xml version="1.0" encoding="utf-8"?>
<!-- Generator: Adobe Illustrator 19.0.1, SVG Export Plug-In . SVG Version: 6.00 Build 0)  -->
<!DOCTYPE svg PUBLIC "-//W3C//DTD SVG 1.1//EN" "http://www.w3.org/Graphics/SVG/1.1/DTD/svg11.dtd">
<svg version="1.1" id="Layer_2" xmlns="http://www.w3.org/2000/svg" xmlns:xlink="http://www.w3.org/1999/xlink" x="0px" y="0px"
	 viewBox="0 0 14 14" enable-background="new 0 0 14 14" xml:space="preserve">
<g>
	<path d="M13.6,2.2l-1.8-1.8c-0.6-0.5-1.4-0.5-1.8,0L8.6,1.7l3.7,3.7L13.7,4C14.1,3.6,14.1,2.7,13.6,2.2z"/>
	<path d="M0,13.1C0,13.6,0.3,14,0.8,14l3.5-0.7C2.9,12,2.5,11.6,0.6,9.7L0,13.1z"/>
	<path d="M9.6,4.4L7.8,2.6c0,0-4.4,4.4-6.2,6.2c1.6,1.6,1.8,1.8,1.8,1.8L9.6,4.4z"/>
	<polygon points="4.3,11.5 5.2,12.5 11.4,6.2 10.5,5.3 	"/>
</g>
</svg>
