<?xml version="1.0" encoding="utf-8"?>
<!-- Generator: Adobe Illustrator 19.0.1, SVG Export Plug-In . SVG Version: 6.00 Build 0)  -->
<!DOCTYPE svg PUBLIC "-//W3C//DTD SVG 1.1//EN" "http://www.w3.org/Graphics/SVG/1.1/DTD/svg11.dtd">
<svg version="1.1" id="Layer_2" xmlns="http://www.w3.org/2000/svg" xmlns:xlink="http://www.w3.org/1999/xlink" x="0px" y="0px"
	 viewBox="0 0 14 14" enable-background="new 0 0 14 14" xml:space="preserve">
<g>
	<path d="M7,14c-3.9,0-7-3.1-7-7c0-2.3,1.1-4.4,3-5.7c0.5-0.3,1.1-0.2,1.4,0.2C4.7,2,4.6,2.6,4.1,2.9C2.8,3.8,2,5.4,2,7
		c0,2.8,2.2,5,5,5s5-2.2,5-5c0-1.6-0.8-3.2-2.1-4.1C9.4,2.6,9.3,2,9.6,1.5C10,1.1,10.6,1,11,1.3c1.9,1.3,3,3.5,3,5.7
		C14,10.9,10.9,14,7,14z"/>
</g>
<g>
	<path d="M7,8.5c-0.7,0-1.3-0.6-1.3-1.3v-6C5.8,0.6,6.3,0,7,0s1.3,0.6,1.3,1.3v6C8.3,7.9,7.7,8.5,7,8.5z"/>
</g>
</svg>
