<?xml version="1.0" encoding="utf-8"?>
<!-- Generator: Adobe Illustrator 19.0.1, SVG Export Plug-In . SVG Version: 6.00 Build 0)  -->
<!DOCTYPE svg PUBLIC "-//W3C//DTD SVG 1.1//EN" "http://www.w3.org/Graphics/SVG/1.1/DTD/svg11.dtd">
<svg version="1.1" id="Layer_2" xmlns="http://www.w3.org/2000/svg" xmlns:xlink="http://www.w3.org/1999/xlink" x="0px" y="0px"
	 viewBox="0 0 14 14" enable-background="new 0 0 14 14" xml:space="preserve">
<path d="M9.7,0.8C9.1,0.3,8.1,0,7.1,0C5.1,0,3,1.2,3,3.5c0,0.5,0.4,1,1,1s1-0.4,1-1C5,2.4,6.3,2,7.1,2c0.5,0,1,0.1,1.3,0.4
	C8.8,2.6,9,3,9,3.5c0,1.1-0.5,1.4-1.2,2C6.5,6.7,6,7.6,6,10c0,0.5,0.4,1,1,1s1-0.5,1-1c0-2.4,0.4-2.4,1.1-2.9C9.9,6.4,11,5.6,11,3.5
	C11,2.4,10.6,1.5,9.7,0.8z"/>
<circle cx="6.9" cy="13" r="1"/>
</svg>
