<?xml version="1.0" encoding="utf-8"?>
<!-- Generator: Adobe Illustrator 19.0.1, SVG Export Plug-In . SVG Version: 6.00 Build 0)  -->
<!DOCTYPE svg PUBLIC "-//W3C//DTD SVG 1.1//EN" "http://www.w3.org/Graphics/SVG/1.1/DTD/svg11.dtd">
<svg version="1.1" id="Layer_2" xmlns="http://www.w3.org/2000/svg" xmlns:xlink="http://www.w3.org/1999/xlink" x="0px" y="0px"
	 viewBox="0 0 14 14" enable-background="new 0 0 14 14" xml:space="preserve">
<g>
	<path d="M12.7,8.1c-0.5-0.2-1.1,0.1-1.3,0.6l-0.1,0.2c-0.7,1.8-2.4,2.9-4.3,2.9c-1.4,0-2.7-0.6-3.6-1.6l1.3-1.3C5,8.5,4.8,8,4.4,8
		H0v4.4c0,0.4,0.5,0.7,0.9,0.4L2,11.5c1.3,1.4,3.1,2.2,5,2.2c2.7,0,5.1-1.6,6.2-4.1c0-0.1,0.1-0.2,0.1-0.3
		C13.5,8.8,13.2,8.3,12.7,8.1z"/>
	<path d="M13.1,1.3L12,2.5c-1.3-1.4-3.1-2.2-5-2.2c-2.7,0-5.1,1.6-6.2,4.1c0,0.1-0.1,0.2-0.1,0.3C0.5,5.2,0.8,5.7,1.3,5.9
		C1.4,6,1.5,6,1.6,6C2,6,2.4,5.8,2.6,5.4l0.1-0.2C3.4,3.4,5.1,2.2,7,2.2c1.4,0,2.7,0.6,3.6,1.6L9.3,5.1C9,5.5,9.2,6,9.6,6H14V1.6
		C14,1.2,13.5,1,13.1,1.3z"/>
</g>
</svg>
