<?xml version="1.0" encoding="utf-8"?>
<!-- Generator: Adobe Illustrator 19.0.1, SVG Export Plug-In . SVG Version: 6.00 Build 0)  -->
<!DOCTYPE svg PUBLIC "-//W3C//DTD SVG 1.1//EN" "http://www.w3.org/Graphics/SVG/1.1/DTD/svg11.dtd">
<svg version="1.1" id="Layer_2" xmlns="http://www.w3.org/2000/svg" xmlns:xlink="http://www.w3.org/1999/xlink" x="0px" y="0px"
	 viewBox="0 0 14 14" enable-background="new 0 0 14 14" xml:space="preserve">
<g>
	<path d="M3.8,8.5C3.5,8.9,3,9.7,3,10.1c0,0.6,0.2,1.1,0.8,1.1c0.6,0,0.8-0.5,0.8-1.1C4.5,9.7,4,8.9,3.8,8.5z"/>
	<path d="M6.8,8.5C6.5,8.9,6,9.7,6,10.1c0,0.6,0.2,1.1,0.8,1.1c0.6,0,0.8-0.5,0.8-1.1C7.5,9.7,7,8.9,6.8,8.5z"/>
	<path d="M9,10.1c0,0.6,0.2,1.1,0.8,1.1c0.6,0,0.8-0.5,0.8-1.1c0-0.5-0.5-1.2-0.8-1.6C9.5,8.9,9,9.7,9,10.1z"/>
	<path d="M4.5,12.9c0,0.6,0.2,1.1,0.8,1.1C5.8,14,6,13.5,6,12.9c0-0.5-0.5-1.2-0.8-1.6C5,11.7,4.5,12.4,4.5,12.9z"/>
	<path d="M7.5,12.9c0,0.6,0.2,1.1,0.7,1.1C8.8,14,9,13.5,9,12.9c0-0.5-0.5-1.2-0.8-1.6C8,11.7,7.5,12.4,7.5,12.9z"/>
	<path d="M10.4,4c0.5-1.1,0-1.8-0.5-2.3C9.4,1.4,8.9,1.2,8.4,1.2c-0.4,0-0.8,0.1-1,0.2C7.1,0.8,6.5,0.1,5.3,0L5.2,0
		c-1,0-2,0.5-2.4,1.4C2.6,1.9,2.6,2.4,2.8,3c-1,0.4-1.6,1.3-1.6,2.4C1.3,6.6,2.1,8,4.5,8h6.3l0,0c0.7-0.1,2-0.6,2-2.1
		C12.8,5.2,12.4,4.2,10.4,4z M10.7,7H4.5C2.5,7,2.3,6,2.3,5.4c0-0.9,0.5-1.5,1.4-1.6l0.9-0.1L4,3C3.8,2.7,3.5,2.2,3.8,1.8
		C4,1.3,4.6,1,5.3,1c0,0,0,0,0,0c1.1,0,1.2,1,1.2,1.1L6.6,3l0.7-0.4c0,0,0.5-0.3,1.1-0.3c0.3,0,0.6,0.1,0.8,0.3
		c0.5,0.5,0.5,0.9-0.1,1.7L8.5,5l1.2,0c0.9,0,2.1,0.2,2.1,0.9C11.8,6.8,10.9,7,10.7,7z"/>
</g>
</svg>
