<?xml version="1.0" encoding="utf-8"?>
<!-- Generator: Adobe Illustrator 19.0.1, SVG Export Plug-In . SVG Version: 6.00 Build 0)  -->
<!DOCTYPE svg PUBLIC "-//W3C//DTD SVG 1.1//EN" "http://www.w3.org/Graphics/SVG/1.1/DTD/svg11.dtd">
<svg version="1.1" id="Layer_2" xmlns="http://www.w3.org/2000/svg" xmlns:xlink="http://www.w3.org/1999/xlink" x="0px" y="0px"
	 viewBox="0 0 14 14" enable-background="new 0 0 14 14" xml:space="preserve">
<path d="M9.6,0C9,0,8.9,0,8.5,0C8.4,0.1,8.3,0.2,8.2,0.3H8C8.2,0.2,8.3,0.1,8.5,0C8.3,0,8,0,7.4,0C1,2.4-2.7,7.8,2.3,14H8
	c-0.7-0.4-1.2-0.9-1.8-1.4h4.2c0.6,0.5,1.3,0.9,2,1.4H14v-3.5C9,8.9,6.4,2.6,9.6,0z M7.7,0.5h0.4C7.8,0.8,7.6,1.1,7.4,1.3H6.7
	C7,1,7.3,0.8,7.7,0.5z M6.2,1.7h0.9C6.8,2.1,6.6,2.5,6.4,2.8H5.2C5.5,2.4,5.9,2.1,6.2,1.7z M4.8,3.5h1.3C5.9,4,5.7,4.5,5.6,4.9H4.1
	C4.3,4.4,4.5,4,4.8,3.5z M3.8,5.9h1.8c0,0.6,0.2,1.2,0.4,1.8H3.7C3.7,7.1,3.7,6.5,3.8,5.9z M5,11.1c-0.5-0.7-0.8-1.5-1-2.2h2.7
	c0.5,0.7,1.2,1.5,2,2.2H5z"/>
</svg>
