<?xml version="1.0" encoding="utf-8"?>
<!-- Generator: Adobe Illustrator 19.0.1, SVG Export Plug-In . SVG Version: 6.00 Build 0)  -->
<!DOCTYPE svg PUBLIC "-//W3C//DTD SVG 1.1//EN" "http://www.w3.org/Graphics/SVG/1.1/DTD/svg11.dtd">
<svg version="1.1" id="Layer_2" xmlns="http://www.w3.org/2000/svg" xmlns:xlink="http://www.w3.org/1999/xlink" x="0px" y="0px"
	 viewBox="0 0 14 14" enable-background="new 0 0 14 14" xml:space="preserve">
<path d="M13.1,1.3L12,2.5c-1-1.1-2.3-1.9-3.8-2.1c-2.6-0.5-5.3,0.7-6.8,3C1.3,3.4,1.3,3.5,1.2,3.6C0.8,4.3,0.5,5.1,0.3,5.8v0v0
	c-0.3,1.8,0.1,3.6,1.1,5s2.6,2.5,4.4,2.8c0.1,0,0.1,0,0.2,0c0.5,0,0.9-0.3,1-0.8c0.1-0.5-0.3-1.1-0.8-1.2c-1.3-0.2-2.3-0.9-3.1-1.9
	c-0.7-1-1-2.3-0.8-3.5l0,0c0.1-0.5,0.3-1,0.6-1.6L3,4.4c1-1.6,2.9-2.4,4.8-2.1c1.1,0.2,2,0.7,2.8,1.6L9.3,5.1C9,5.5,9.2,6,9.6,6H14
	V1.6C14,1.2,13.5,1,13.1,1.3z"/>
</svg>
