<?xml version="1.0" encoding="utf-8"?>
<!-- Generator: Adobe Illustrator 19.0.1, SVG Export Plug-In . SVG Version: 6.00 Build 0)  -->
<!DOCTYPE svg PUBLIC "-//W3C//DTD SVG 1.1//EN" "http://www.w3.org/Graphics/SVG/1.1/DTD/svg11.dtd">
<svg version="1.1" id="Layer_2" xmlns="http://www.w3.org/2000/svg" xmlns:xlink="http://www.w3.org/1999/xlink" x="0px" y="0px"
	 viewBox="0 0 14 14" enable-background="new 0 0 14 14" xml:space="preserve">
<g>
	<path d="M10.7,14c-0.2,0-0.3,0-0.5-0.1L7,12.1l-3.2,1.8c-0.4,0.2-0.9,0.1-1.2-0.2c-0.2-0.2-0.3-0.5-0.2-0.8L2.9,9L0.3,6.2
		C0,5.9-0.1,5.6,0.1,5.2s0.4-0.6,0.8-0.7L4.5,4l1.6-3.5c0.3-0.7,1.5-0.7,1.8,0L9.5,4l3.6,0.6c0.4,0.1,0.7,0.3,0.8,0.7s0,0.7-0.2,1
		L11.1,9l0.6,3.9c0,0.3,0,0.6-0.2,0.8C11.3,13.8,11,14,10.7,14z M2,5.9L4.1,8c0.3,0.3,0.4,0.7,0.3,1L4,12l2.4-1.3
		c0.4-0.2,0.8-0.2,1.2,0L10,12l-0.5-3C9.5,8.7,9.6,8.3,9.9,8L12,5.9L9.2,5.4C8.8,5.4,8.4,5.1,8.2,4.7L7,2.1L5.8,4.7
		C5.6,5.1,5.2,5.4,4.8,5.4L2,5.9z"/>
</g>
</svg>
