<?xml version="1.0" encoding="utf-8"?>
<!-- Generator: Adobe Illustrator 19.0.1, SVG Export Plug-In . SVG Version: 6.00 Build 0)  -->
<!DOCTYPE svg PUBLIC "-//W3C//DTD SVG 1.1//EN" "http://www.w3.org/Graphics/SVG/1.1/DTD/svg11.dtd">
<svg version="1.1" id="Layer_2" xmlns="http://www.w3.org/2000/svg" xmlns:xlink="http://www.w3.org/1999/xlink" x="0px" y="0px"
	 viewBox="0 0 14 14" enable-background="new 0 0 14 14" xml:space="preserve">
<g>
	<circle cx="7" cy="7" r="3.5"/>
	<path d="M2.6,4.6L1.2,4.1c-0.3-0.1-0.5,0-0.7,0.3C0.4,4.6,0.5,4.9,0.8,5l1.4,0.6c0.1,0,0.1,0,0.2,0c0.2,0,0.4-0.1,0.5-0.3
		C2.9,5,2.8,4.7,2.6,4.6z"/>
	<path d="M13.2,9l-1.4-0.6c-0.3-0.1-0.5,0-0.7,0.3c-0.1,0.3,0,0.5,0.3,0.7l1.4,0.6c0.1,0,0.1,0,0.2,0c0.2,0,0.4-0.1,0.5-0.3
		C13.6,9.4,13.5,9.1,13.2,9z"/>
	<path d="M5.3,11.2c-0.3-0.1-0.5,0-0.7,0.3l-0.6,1.4c-0.1,0.3,0,0.5,0.3,0.7c0.1,0,0.1,0,0.2,0c0.2,0,0.4-0.1,0.5-0.3l0.6-1.4
		C5.7,11.6,5.5,11.3,5.3,11.2z"/>
	<path d="M8.7,2.8c0.1,0,0.1,0,0.2,0c0.2,0,0.4-0.1,0.5-0.3l0.6-1.4c0.1-0.3,0-0.5-0.3-0.7C9.4,0.4,9.1,0.5,9,0.8L8.5,2.2
		C8.3,2.4,8.5,2.7,8.7,2.8z"/>
	<path d="M9.4,11.4c-0.1-0.3-0.4-0.4-0.7-0.3c-0.3,0.1-0.4,0.4-0.3,0.7L9,13.2c0.1,0.2,0.3,0.3,0.5,0.3c0.1,0,0.1,0,0.2,0
		c0.3-0.1,0.4-0.4,0.3-0.7L9.4,11.4z"/>
	<path d="M4.6,2.6c0.1,0.2,0.3,0.3,0.5,0.3c0.1,0,0.1,0,0.2,0c0.3-0.1,0.4-0.4,0.3-0.7L5,0.8C4.9,0.5,4.6,0.4,4.3,0.5
		C4.1,0.6,3.9,0.9,4.1,1.2L4.6,2.6z"/>
	<path d="M2.2,8.5L0.8,9C0.5,9.1,0.4,9.4,0.5,9.7C0.6,9.9,0.8,10,1,10c0.1,0,0.1,0,0.2,0l1.4-0.6C2.8,9.3,2.9,9,2.8,8.7
		S2.4,8.3,2.2,8.5z"/>
	<path d="M11.6,5.6c0.1,0,0.1,0,0.2,0L13.2,5c0.3-0.1,0.4-0.4,0.3-0.7s-0.4-0.4-0.7-0.3l-1.4,0.6c-0.3,0.1-0.4,0.4-0.3,0.7
		C11.2,5.5,11.4,5.6,11.6,5.6z"/>
</g>
</svg>
