<?xml version="1.0" encoding="utf-8"?>
<!-- Generator: Adobe Illustrator 19.0.1, SVG Export Plug-In . SVG Version: 6.00 Build 0)  -->
<!DOCTYPE svg PUBLIC "-//W3C//DTD SVG 1.1//EN" "http://www.w3.org/Graphics/SVG/1.1/DTD/svg11.dtd">
<svg version="1.1" id="Layer_2" xmlns="http://www.w3.org/2000/svg" xmlns:xlink="http://www.w3.org/1999/xlink" x="0px" y="0px"
	 viewBox="0 0 14 14" enable-background="new 0 0 14 14" xml:space="preserve">
<path d="M12.6,6.5L14,5.5l0-0.1c0-0.2-0.1-0.4-0.2-0.7c-0.1-0.2-0.2-0.4-0.2-0.6l0-0.1l-1.7,0c-0.2-0.3-0.4-0.6-0.6-0.8l0.6-1.6
	l-0.1-0.1c-0.3-0.3-0.7-0.6-1.1-0.8l-0.1,0l-1.3,1c-0.3-0.1-0.7-0.2-1-0.3L7.8-0.1l-0.1,0c-0.5,0-0.9,0-1.4,0l-0.1,0L5.8,1.5
	c-0.2,0-0.3,0.1-0.5,0.1C5.1,1.7,4.9,1.7,4.8,1.8l-1.3-1l-0.1,0C3,1.1,2.6,1.3,2.3,1.6L2.2,1.7l0.6,1.6C2.5,3.5,2.3,3.8,2.1,4.1
	l-1.7,0l0,0.1C0.3,4.6,0.1,5,0,5.4l0,0.1l1.4,0.9c0,0.3,0,0.7,0,1L0,8.5l0,0.1c0,0.2,0.1,0.4,0.2,0.7c0.1,0.2,0.2,0.4,0.2,0.6l0,0.1
	l1.7,0c0.2,0.3,0.4,0.6,0.6,0.8l-0.6,1.6l0.1,0.1c0.3,0.3,0.7,0.6,1.1,0.8l0.1,0l1.3-1c0.3,0.1,0.7,0.2,1,0.3l0.5,1.6l0.1,0
	c0.5,0,0.9,0,1.4,0l0.1,0l0.5-1.6c0.2,0,0.3-0.1,0.5-0.1c0.2-0.1,0.3-0.1,0.5-0.2l1.3,1l0.1,0c0.4-0.2,0.8-0.5,1.1-0.8l0.1-0.1
	l-0.6-1.6c0.2-0.3,0.4-0.5,0.6-0.8l1.7,0l0-0.1C13.7,9.4,13.9,9,14,8.6l0-0.1l-1.4-0.9C12.7,7.2,12.7,6.8,12.6,6.5z M7,11
	c-2.2,0-4-1.8-4-4c0-2.2,1.8-4,4-4c2.2,0,4,1.8,4,4C11,9.2,9.2,11,7,11z"/>
<g>
	<path d="M7,10c-1.7,0-3-1.3-3-3s1.3-3,3-3s3,1.3,3,3S8.7,10,7,10z M7,5C5.9,5,5,5.9,5,7s0.9,2,2,2s2-0.9,2-2S8.1,5,7,5z"/>
</g>
</svg>
