<?xml version="1.0" encoding="utf-8"?>
<!-- Generator: Adobe Illustrator 19.0.1, SVG Export Plug-In . SVG Version: 6.00 Build 0)  -->
<!DOCTYPE svg PUBLIC "-//W3C//DTD SVG 1.1//EN" "http://www.w3.org/Graphics/SVG/1.1/DTD/svg11.dtd">
<svg version="1.1" id="Layer_2" xmlns="http://www.w3.org/2000/svg" xmlns:xlink="http://www.w3.org/1999/xlink" x="0px" y="0px"
	 viewBox="0 0 14 14" enable-background="new 0 0 14 14" xml:space="preserve">
<path d="M13.9,4.7c-1.6-2-2.1-2.7-3.1-4l-0.4-0.5C10.3,0.1,10.2,0,10,0H8.7H2.5h-2C0.2,0,0,0.2,0,0.5v13C0,13.8,0.2,14,0.5,14h2h9h2
	c0.3,0,0.5-0.2,0.5-0.5V5C14,4.9,14,4.8,13.9,4.7z M8.5,1v2.5H5.4c0-0.1,0.1-0.2,0.1-0.3V1H8.5z M3.5,13V8.5h7V13H3.5z M13,13h-1.5
	V7.5h-9V13H1V1h1.5v3.5h7V1h0.3L10,1.3c1,1.3,1.5,2,3,3.9V13z"/>
</svg>
