<?xml version="1.0" encoding="utf-8"?>
<!-- Generator: Adobe Illustrator 19.0.1, SVG Export Plug-In . SVG Version: 6.00 Build 0)  -->
<!DOCTYPE svg PUBLIC "-//W3C//DTD SVG 1.1//EN" "http://www.w3.org/Graphics/SVG/1.1/DTD/svg11.dtd">
<svg version="1.1" id="Layer_2" xmlns="http://www.w3.org/2000/svg" xmlns:xlink="http://www.w3.org/1999/xlink" x="0px" y="0px"
	 viewBox="0 0 14 14" enable-background="new 0 0 14 14" xml:space="preserve">
<path d="M9.1,1.6C7-0.5,3.6-0.5,1.6,1.6s-2.1,5.4,0,7.5c1.7,1.7,4.3,2,6.3,0.9l3.6,3.6c0.6,0.6,1.6,0.6,2.1,0c0.6-0.6,0.6-1.6,0-2.1
	L10,7.8C11.1,5.8,10.8,3.3,9.1,1.6z M8,8C6.5,9.5,4.1,9.5,2.6,8s-1.5-3.9,0-5.4s3.9-1.5,5.4,0S9.5,6.5,8,8z"/>
</svg>
