<?xml version="1.0" encoding="utf-8"?>
<!-- Generator: Adobe Illustrator 19.0.1, SVG Export Plug-In . SVG Version: 6.00 Build 0)  -->
<!DOCTYPE svg PUBLIC "-//W3C//DTD SVG 1.1//EN" "http://www.w3.org/Graphics/SVG/1.1/DTD/svg11.dtd">
<svg version="1.1" id="Layer_2" xmlns="http://www.w3.org/2000/svg" xmlns:xlink="http://www.w3.org/1999/xlink" x="0px" y="0px"
	 viewBox="0 0 14 14" enable-background="new 0 0 14 14" xml:space="preserve">
<path fill-rule="evenodd" clip-rule="evenodd" d="M7,0C3.1,0,0,3.1,0,7c0,3.9,3.1,7,7,7s7-3.1,7-7C14,3.1,10.9,0,7,0z M11.6,10.9
	c-0.7-0.9-0.8-2.2-0.1-2.9c0.4-0.4,0.9-0.5,1.5-0.5C12.9,8.8,12.4,9.9,11.6,10.9z M7,1c3,0,5.5,2.2,5.9,5c-1.6-1-3.6-1.5-5.9-1.5
	S2.7,5.1,1.1,6C1.5,3.2,4,1,7,1z M8.5,7c0,0.8-0.7,1.5-1.5,1.5S5.5,7.8,5.5,7S6.2,5.5,7,5.5S8.5,6.2,8.5,7z M2.4,10.9
	C1.6,9.9,1.1,8.8,1,7.5C1.6,7.5,2.1,7.6,2.5,8C3.2,8.7,3.1,9.9,2.4,10.9z M4.5,12.4c0-1.6,1.1-2.9,2.5-2.9s2.5,1.3,2.5,2.9
	C8.7,12.8,7.9,13,7,13S5.3,12.8,4.5,12.4z"/>
</svg>
