<?xml version="1.0" encoding="utf-8"?>
<!-- Generator: Adobe Illustrator 19.0.1, SVG Export Plug-In . SVG Version: 6.00 Build 0)  -->
<!DOCTYPE svg PUBLIC "-//W3C//DTD SVG 1.1//EN" "http://www.w3.org/Graphics/SVG/1.1/DTD/svg11.dtd">
<svg version="1.1" id="Layer_2" xmlns="http://www.w3.org/2000/svg" xmlns:xlink="http://www.w3.org/1999/xlink" x="0px" y="0px"
	 viewBox="0 0 14 14" enable-background="new 0 0 14 14" xml:space="preserve">
<path d="M7.4,0.3l1.7,3.5c0.1,0.3,0.4,0.5,0.7,0.5L13.6,5C14,5,14.1,5.5,13.9,5.8l-2.7,2.8c-0.2,0.2-0.3,0.5-0.3,0.8l0.6,4
	c0.1,0.4-0.4,0.7-0.7,0.5l-3.3-1.8c-0.3-0.2-0.6-0.2-0.9,0l-3.3,1.8c-0.4,0.2-0.8-0.1-0.7-0.5l0.6-4c0-0.3,0-0.6-0.3-0.8L0.1,5.8
	C-0.1,5.5,0,5,0.4,5l3.7-0.6c0.3-0.1,0.6-0.3,0.7-0.5l1.7-3.5C6.7-0.1,7.3-0.1,7.4,0.3z"/>
</svg>
