<?xml version="1.0" encoding="utf-8"?>
<!-- Generator: Adobe Illustrator 19.0.1, SVG Export Plug-In . SVG Version: 6.00 Build 0)  -->
<!DOCTYPE svg PUBLIC "-//W3C//DTD SVG 1.1//EN" "http://www.w3.org/Graphics/SVG/1.1/DTD/svg11.dtd">
<svg version="1.1" id="Layer_2" xmlns="http://www.w3.org/2000/svg" xmlns:xlink="http://www.w3.org/1999/xlink" x="0px" y="0px"
	 viewBox="0 0 14 14" enable-background="new 0 0 14 14" xml:space="preserve">
<g>
	<path d="M7.5,3V1.5h1.3C8.9,1.5,9,1.4,9,1.2v-1C9,0.1,8.9,0,8.8,0H5.3C5.1,0,5,0.1,5,0.2v1c0,0.1,0.1,0.3,0.3,0.3h1.3V3
		c-2.8,0.3-5,2.6-5,5.5C1.5,11.5,4,14,7,14s5.5-2.5,5.5-5.5C12.5,5.6,10.3,3.3,7.5,3z M7,13c-2.5,0-4.5-2-4.5-4.5S4.5,4,7,4
		s4.5,2,4.5,4.5S9.5,13,7,13z"/>
	<path d="M1.9,4.2l1.4-1.4c0.1-0.1,0.1-0.3,0-0.4L2.6,1.8c-0.1-0.1-0.3-0.1-0.4,0L0.8,3.2c-0.1,0.1-0.1,0.3,0,0.4l0.7,0.7
		C1.6,4.3,1.8,4.3,1.9,4.2z"/>
	<path d="M13.2,3.2l-1.4-1.4c-0.1-0.1-0.3-0.1-0.4,0l-0.7,0.7c-0.1,0.1-0.1,0.3,0,0.4l1.4,1.4c0.1,0.1,0.3,0.1,0.4,0l0.7-0.7
		C13.3,3.4,13.3,3.3,13.2,3.2z"/>
	<path d="M5.2,6C5,5.9,4.7,5.9,4.5,6c-0.2,0.2-0.2,0.5,0,0.7l2.1,2.1C6.9,9,7.2,9,7.4,8.9c0.2-0.2,0.2-0.5,0-0.7L5.2,6z"/>
</g>
</svg>
