<?xml version="1.0" encoding="utf-8"?>
<!-- Generator: Adobe Illustrator 19.0.1, SVG Export Plug-In . SVG Version: 6.00 Build 0)  -->
<!DOCTYPE svg PUBLIC "-//W3C//DTD SVG 1.1//EN" "http://www.w3.org/Graphics/SVG/1.1/DTD/svg11.dtd">
<svg version="1.1" id="Layer_2" xmlns="http://www.w3.org/2000/svg" xmlns:xlink="http://www.w3.org/1999/xlink" x="0px" y="0px"
	 viewBox="0 0 14 14" enable-background="new 0 0 14 14" xml:space="preserve">
<path d="M14,5.9c-0.1-0.3-0.3-0.4-0.6-0.4L11.3,6l0.6-1.3c0.1-0.2,0-0.5-0.2-0.7c-0.2-0.1-0.5,0-0.7,0.2l-1,2c0,0,0,0,0,0L7.5,6.9
	V4.3l1.8-1.3c0.2-0.2,0.3-0.5,0.1-0.7C9.2,2,8.9,1.9,8.7,2.1L7.5,3V0.5C7.5,0.2,7.3,0,7,0S6.5,0.2,6.5,0.5V3L5.3,2.1
	C5.1,1.9,4.8,2,4.6,2.2C4.4,2.4,4.5,2.7,4.7,2.9l1.8,1.3v2.6L3.9,6.3c0,0,0,0,0,0l-1-2C2.8,4,2.5,3.9,2.3,4.1S1.9,4.5,2.1,4.7L2.7,6
	L0.6,5.5C0.3,5.5,0.1,5.6,0,5.9C0,6.2,0.1,6.4,0.4,6.5l2,0.5L1.6,7.6c-0.2,0.2-0.2,0.5,0,0.7C1.7,8.5,1.9,8.5,2,8.5s0.3,0,0.4-0.1
	l1.1-1.1l2.6,0.6L4.5,10h-2C2.2,10,2,10.2,2,10.5S2.2,11,2.5,11h1.2l-1.7,2.2c-0.2,0.2-0.1,0.5,0.1,0.7C2.3,14,2.4,14,2.5,14
	c0.2,0,0.3-0.1,0.4-0.2l1.6-2.2l0.5,1.1C5.1,12.9,5.3,13,5.5,13c0.1,0,0.2,0,0.2-0.1c0.2-0.1,0.3-0.4,0.2-0.7l-0.8-1.5L7,8.3
	l1.8,2.4l-0.8,1.5c-0.1,0.2,0,0.5,0.2,0.7C8.3,13,8.4,13,8.5,13c0.2,0,0.4-0.1,0.4-0.3l0.5-1.1l1.6,2.2c0.1,0.1,0.2,0.2,0.4,0.2
	c0.1,0,0.2,0,0.3-0.1c0.2-0.2,0.3-0.5,0.1-0.7L10.3,11h1.2c0.3,0,0.5-0.2,0.5-0.5S11.8,10,11.5,10h-2L7.9,7.8l2.6-0.6l1.1,1.1
	c0.1,0.1,0.2,0.1,0.4,0.1s0.3,0,0.4-0.1c0.2-0.2,0.2-0.5,0-0.7l-0.7-0.7l2-0.5C13.9,6.4,14,6.2,14,5.9z"/>
</svg>
