<?xml version="1.0" encoding="utf-8"?>
<!-- Generator: Adobe Illustrator 19.0.1, SVG Export Plug-In . SVG Version: 6.00 Build 0)  -->
<!DOCTYPE svg PUBLIC "-//W3C//DTD SVG 1.1//EN" "http://www.w3.org/Graphics/SVG/1.1/DTD/svg11.dtd">
<svg version="1.1" id="Layer_2" xmlns="http://www.w3.org/2000/svg" xmlns:xlink="http://www.w3.org/1999/xlink" x="0px" y="0px"
	 viewBox="0 0 14 14" enable-background="new 0 0 14 14" xml:space="preserve">
<g>
	<path d="M11.3,6.3C10.3,6.2,9.4,6.1,8.4,6c0,0.4-0.1,0.9-0.1,1.3c1,0.1,1.9,0.2,2.9,0.3C11.2,7.1,11.2,6.7,11.3,6.3z"/>
	<path d="M3.1,4.6C3.6,4.7,4,4.7,4.4,4.8C4.5,3.8,4.6,2.9,4.7,2C4.3,1.9,3.9,1.9,3.4,1.8C3.3,2.8,3.2,3.7,3.1,4.6z"/>
	<path d="M8,5.9c-0.4,0-0.9-0.1-1.3-0.1c-0.1,1-0.2,1.9-0.3,2.9c0.4,0,0.9,0.1,1.3,0.1C7.7,7.8,7.8,6.9,8,5.9z"/>
	<path d="M11.2,9.9c-0.5-0.1-0.9-0.1-1.3-0.2c-0.1,1-0.2,1.9-0.3,2.8c0.4,0,0.9,0.1,1.3,0.1C11,11.8,11.1,10.8,11.2,9.9z"/>
	<path d="M9.5,7.9C9.1,7.9,8.7,7.8,8.2,7.8C8.1,8.7,8,9.7,7.9,10.6c0.4,0,0.9,0.1,1.3,0.1C9.3,9.8,9.4,8.9,9.5,7.9z"/>
	<path d="M6,7.2C5,7.1,4.1,7,3.2,6.9c0,0.4-0.1,0.9-0.1,1.3C4,8.3,4.9,8.5,5.9,8.6C5.9,8.1,6,7.7,6,7.2z"/>
	<path d="M4.4,5.2C3.4,5.1,2.5,5,1.6,4.9C1.5,5.4,1.4,5.8,1.4,6.2c1,0.1,1.9,0.2,2.9,0.3C4.3,6.1,4.3,5.7,4.4,5.2z"/>
	<path d="M9.6,4.3c-0.3,0-0.6-0.1-1-0.1C8,4.1,7.4,4,6.8,3.9C6.8,4.4,6.7,4.9,6.7,5.3c0.9,0.1,1.9,0.2,2.9,0.3
		c0-0.4,0.1-0.8,0.1-1.3C9.7,4.3,9.6,4.3,9.6,4.3z"/>
	<path d="M7.6,9.2C6.6,9.1,5.7,9,4.8,8.9c0,0.4-0.1,0.9-0.1,1.3c0.9,0.1,1.9,0.2,2.8,0.3C7.5,10.1,7.6,9.7,7.6,9.2z"/>
	<path d="M9.2,11.2c-0.9-0.1-1.9-0.2-2.8-0.3c0,0.4-0.1,0.9-0.1,1.3c1,0.1,1.9,0.2,2.8,0.3C9.1,12.1,9.1,11.6,9.2,11.2z"/>
	<path d="M4.7,6.7c0.4,0,0.9,0.1,1.3,0.1c0.1-1,0.2-1.9,0.3-2.8C5.9,3.9,5.5,3.8,5.1,3.8C5,4.7,4.9,5.7,4.7,6.7z"/>
	<path d="M12.9,8.3c-1-0.1-1.9-0.2-2.8-0.3c0,0.4-0.1,0.9-0.1,1.3c1,0.1,1.9,0.2,2.8,0.3C12.8,9.1,12.8,8.7,12.9,8.3z"/>
	<path d="M5.1,3.3C6,3.4,7,3.5,7.9,3.6C8,3.2,8,2.7,8.1,2.3C7.1,2.2,6.2,2.1,5.3,2C5.2,2.4,5.2,2.9,5.1,3.3z"/>
	<path d="M10.2,4.4c0,0-0.1,0.1-0.1,0.1c-0.1,0.4-0.1,0.7-0.2,1.1c0.2,0,0.4,0.1,0.6,0.1c0.6,0.1,0.6,0.1,1-0.3
		c0.1-0.1,0.3-0.2,0.4-0.3c0.1-0.1,0.2-0.2,0.3-0.3c-0.1-0.2-0.2-0.3-0.3-0.4c-0.2,0.1-0.3,0.2-0.4,0.3c-0.1-0.2-0.2-0.3-0.4-0.5
		c0.1-0.1,0.3-0.2,0.4-0.3c-0.1-0.1-0.2-0.3-0.3-0.4C11,3.8,10.7,4,10.4,4.2C10.4,4.3,10.3,4.4,10.2,4.4z"/>
	<path d="M11.8,6.5c0,0.4-0.1,0.7-0.1,1.1c0.4,0,0.7,0.1,1,0.1c0.1,0,0.1,0,0.2,0c0.4-0.3,0.7-0.6,1.1-0.9c-0.1-0.1-0.2-0.3-0.3-0.4
		c-0.1,0.1-0.3,0.2-0.4,0.3c-0.1-0.2-0.3-0.3-0.4-0.5C13,6.2,13.1,6,13.2,5.9c-0.1-0.1-0.2-0.3-0.3-0.4c-0.4,0.3-0.7,0.6-1.1,0.9
		C11.8,6.4,11.8,6.5,11.8,6.5z"/>
	<path d="M5.7,12c0-0.4,0.1-0.7,0.1-1.1c-0.4,0-0.7-0.1-1.1-0.1c0,0,0,0-0.1,0c-0.4,0.3-0.7,0.6-1.1,0.9c0.1,0.1,0.2,0.3,0.3,0.4
		C4,12,4.1,11.9,4.3,11.7c0.1,0.2,0.3,0.3,0.4,0.5c-0.2,0.1-0.3,0.2-0.4,0.4c0.1,0.1,0.2,0.3,0.3,0.4c0.4-0.3,0.7-0.6,1.1-0.9
		C5.7,12.1,5.7,12,5.7,12z"/>
	<path d="M4.1,10c0-0.4,0.1-0.7,0.1-1.1c-0.4,0-0.7-0.1-1.1-0.1c0,0-0.1,0-0.1,0C2.7,9.1,2.3,9.4,1.9,9.7C2,9.8,2.1,10,2.3,10.1
		C2.4,10,2.5,9.9,2.7,9.7c0.1,0.2,0.3,0.3,0.4,0.5c-0.2,0.1-0.3,0.2-0.4,0.4C2.7,10.7,2.9,10.8,3,11c0.4-0.3,0.7-0.6,1.1-0.9
		C4.1,10.1,4.1,10,4.1,10z"/>
	<path d="M8.5,2.6c0,0.3-0.1,0.7-0.1,1.1c0.2,0,0.3,0,0.5,0c0.5,0.1,0.9,0,1.2-0.4c0.2-0.2,0.4-0.3,0.6-0.5
		c-0.1-0.1-0.2-0.3-0.3-0.4c-0.2,0.1-0.3,0.2-0.4,0.3C9.9,2.6,9.7,2.5,9.6,2.3C9.8,2.2,9.9,2.1,10,2C9.9,1.8,9.8,1.7,9.7,1.6
		C9.3,1.9,9,2.1,8.6,2.4C8.6,2.5,8.6,2.5,8.5,2.6z"/>
	<path d="M2.5,8c0-0.4,0.1-0.7,0.1-1.1c-0.3,0-0.5,0-0.7-0.1c-0.3-0.1-0.6,0-0.8,0.2C0.9,7.3,0.6,7.5,0.3,7.7C0.5,7.9,0.5,8,0.7,8.1
		C0.8,8,0.9,7.9,1.1,7.8c0.1,0.2,0.3,0.3,0.4,0.5C1.3,8.4,1.2,8.5,1,8.6C1.2,8.7,1.3,8.9,1.4,9C1.7,8.7,2.1,8.4,2.5,8
		C2.5,8.1,2.5,8.1,2.5,8z"/>
</g>
<path d="M1.2,0.8c0-0.3,0.1-0.5,0.1-0.8H0c0,0,0,0.1,0,0.1v0.6C0.4,0.7,0.8,0.8,1.2,0.8z"/>
<path d="M1,2.6c0-0.4,0.1-0.9,0.1-1.3C0.8,1.2,0.4,1.2,0,1.1v1.3C0.3,2.5,0.7,2.5,1,2.6z"/>
<path d="M0.4,6.5C0.8,6.3,1,5.9,1,5.4c0-0.2,0.1-0.3,0.1-0.5c-0.2,0-0.4,0-0.6-0.1C0.3,4.8,0.2,4.8,0,4.8v2C0.1,6.7,0.3,6.6,0.4,6.5
	z"/>
<path d="M2.8,2.8C2.9,1.9,3,0.9,3.1,0H1.8C1.7,0.9,1.6,1.8,1.5,2.7C2,2.7,2.4,2.7,2.8,2.8z"/>
<path d="M3.6,0c0,0.4-0.1,0.9-0.1,1.3c0.9,0.1,1.9,0.2,2.8,0.3c0-0.4,0.1-0.9,0.1-1.3C5.5,0.2,4.6,0.1,3.6,0z"/>
<path d="M6.9,0.6C6.9,1,6.8,1.3,6.8,1.6c0.4,0,0.8,0.1,1.1,0.1c0,0,0.1,0,0.1,0c0.4-0.3,0.7-0.6,1.1-0.9C9,0.7,8.9,0.6,8.8,0.4
	C8.7,0.5,8.5,0.7,8.4,0.8C8.2,0.6,8.1,0.5,8,0.3C8.2,0.2,8.3,0.1,8.4,0H7.6C7.4,0.1,7.2,0.3,7,0.4C7,0.5,6.9,0.6,6.9,0.6z"/>
<path d="M13.4,8.5c0,0.4-0.1,0.7-0.1,1.1c0.3,0,0.5,0,0.8,0.1V7.9c-0.2,0.2-0.4,0.3-0.6,0.5C13.4,8.4,13.4,8.5,13.4,8.5z"/>
<path d="M11.5,11.2c0.8,0.1,1.7,0.2,2.5,0.3v-1.3c-0.8-0.1-1.6-0.2-2.4-0.3C11.6,10.4,11.5,10.8,11.5,11.2z"/>
<path d="M13.1,13.2c0.3,0,0.6,0.1,0.9,0.1v-1.3c-0.3,0-0.5-0.1-0.8-0.1C13.2,12.4,13.1,12.8,13.1,13.2z"/>
<path d="M11.5,11.7c-0.1,0.7-0.2,1.5-0.3,2.3h1.3c0.1-0.7,0.2-1.4,0.2-2.1C12.3,11.9,11.9,11.8,11.5,11.7z"/>
<path d="M8.1,12.9c0,0-0.1,0.1-0.1,0.1c-0.1,0.3-0.1,0.7-0.1,1h2.9c0-0.3,0.1-0.6,0.1-0.9C9.9,13.1,9,13,8.1,12.9z"/>
<path d="M7.4,12.9c-0.3,0-0.6-0.1-0.9-0.1c-0.2,0-0.3,0-0.5,0.1c-0.2,0.2-0.4,0.4-0.6,0.5c-0.1,0.1-0.2,0.2-0.3,0.3
	c0.1,0.1,0.2,0.2,0.3,0.3h0.2c0.1-0.1,0.2-0.2,0.3-0.3C6,13.8,6.1,13.9,6.1,14h1.2c0,0,0,0,0,0C7.4,13.6,7.4,13.3,7.4,12.9z"/>
<path d="M2.6,4.6c0-0.5,0.1-0.9,0.1-1.4C1.9,3.1,1,3,0.1,3C0.1,3,0,3,0,3v1.3C0.9,4.4,1.8,4.5,2.6,4.6z"/>
</svg>
