<?xml version="1.0" encoding="utf-8"?>
<!-- Generator: Adobe Illustrator 19.0.1, SVG Export Plug-In . SVG Version: 6.00 Build 0)  -->
<!DOCTYPE svg PUBLIC "-//W3C//DTD SVG 1.1//EN" "http://www.w3.org/Graphics/SVG/1.1/DTD/svg11.dtd">
<svg version="1.1" id="Layer_2" xmlns="http://www.w3.org/2000/svg" xmlns:xlink="http://www.w3.org/1999/xlink" x="0px" y="0px"
	 viewBox="0 0 14 14" enable-background="new 0 0 14 14" xml:space="preserve">
<path d="M12.7,7.1c-0.6-0.9-1.3-1.8-1.2-2.6c0.1-0.2,0.6-0.5,0.9-0.7c0.7-0.4,1.4-0.9,1.5-1.7c0-0.5-0.2-0.9-0.7-1.2
	C12,0.1,8.4,0,7.3,0C5.5,0,2.5,0.1,1.7,1C0.6,2-0.2,6.6,0.1,7.9c0.2,1,0.9,1.6,2,1.6h0c1,0,2.2-0.5,3.3-1c0.8-0.4,1.7-0.8,2.2-0.8
	C7.7,8,7.7,8.2,7.7,8.3C7.5,9,6.1,9.6,5.2,10C3.9,10.6,3,11,3,11.9c0,0.9,1,1.3,1.4,1.5c1,0.4,2,0.6,3.1,0.6c2.9,0,5.5-1.6,6.3-3
	C14.4,9.7,13.5,8.3,12.7,7.1z M12.4,10.3c-0.5,0.9-2.5,2.2-4.9,2.2c-0.9,0-1.7-0.2-2.5-0.5c-0.1,0-0.2-0.1-0.2-0.1
	c0.3-0.2,0.7-0.4,1-0.5c1.4-0.6,2.9-1.3,3.3-2.6C9.3,8.2,9.2,7.6,8.9,7C8.7,6.7,8.3,6.3,7.5,6.3c-0.8,0-1.8,0.4-2.8,0.9
	C3.8,7.6,2.7,8,2,8c0,0,0,0,0,0C1.7,8,1.6,8,1.5,7.6c-0.2-1.1,0.6-5,1.2-5.6C3,1.8,4.6,1.5,7.3,1.5c2.8,0,4.6,0.3,5,0.6
	c-0.2,0.1-0.5,0.3-0.7,0.5c-0.7,0.4-1.5,1-1.6,1.8C9.8,5.6,10.7,6.9,11.4,8C12.1,8.9,12.7,9.8,12.4,10.3z"/>
</svg>
