<?xml version="1.0" encoding="utf-8"?>
<!-- Generator: Adobe Illustrator 19.0.1, SVG Export Plug-In . SVG Version: 6.00 Build 0)  -->
<!DOCTYPE svg PUBLIC "-//W3C//DTD SVG 1.1//EN" "http://www.w3.org/Graphics/SVG/1.1/DTD/svg11.dtd">
<svg version="1.1" id="Layer_2" xmlns="http://www.w3.org/2000/svg" xmlns:xlink="http://www.w3.org/1999/xlink" x="0px" y="0px"
	 viewBox="0 0 14 14" enable-background="new 0 0 14 14" xml:space="preserve">
<g>
	<path d="M5.3,7H2.7C2.3,7,2,7.3,2,7.7v5.7C2,13.7,2.3,14,2.6,14h2.7C5.7,14,6,13.7,6,13.3V7.7C6,7.3,5.7,7,5.3,7z"/>
	<path d="M5,0v3.4C5,3.7,4.7,4,4.4,4H3.6C3.3,4,3,3.7,3,3.4V0C1.8,0.4,1,1.6,1,2.9C1,4.6,2.3,6,4,6c1.7,0,3-1.4,3-3.1
		C7,1.6,6.2,0.4,5,0z"/>
	<path d="M11.7,7h-0.8h-0.4V2.8c0-0.1-0.1-0.3-0.3-0.3H9.8c-0.1,0-0.3,0.1-0.3,0.3V7H9.1H8.3C8.1,7,8,7.1,8,7.3v0.4
		C8,7.9,8.1,8,8.3,8h0.2v5.4c0,0.3,0.3,0.6,0.6,0.6h1.8c0.3,0,0.6-0.3,0.6-0.6V8h0.2C11.9,8,12,7.9,12,7.7V7.3C12,7.1,11.9,7,11.7,7
		z"/>
	<rect x="9.5" y="0" width="1" height="1.5"/>
</g>
</svg>
