<?xml version="1.0" encoding="utf-8"?>
<!-- Generator: Adobe Illustrator 19.0.1, SVG Export Plug-In . SVG Version: 6.00 Build 0)  -->
<!DOCTYPE svg PUBLIC "-//W3C//DTD SVG 1.1//EN" "http://www.w3.org/Graphics/SVG/1.1/DTD/svg11.dtd">
<svg version="1.1" id="Layer_2" xmlns="http://www.w3.org/2000/svg" xmlns:xlink="http://www.w3.org/1999/xlink" x="0px" y="0px"
	 viewBox="0 0 14 14" enable-background="new 0 0 14 14" xml:space="preserve">
<path d="M5.5,2.9C4.9,2.6,4.4,2.4,3.9,2.1C3.9,2.1,3.8,2,3.8,1.9c0-0.6,0-1.2,0-1.9c0.6,0.2,1.1,0.5,1.6,0.7c0.1,0,0.1,0.1,0.1,0.2
	C5.5,1.6,5.5,2.2,5.5,2.9z"/>
<path d="M5.5,6.6C4.9,6.3,4.4,6.1,3.9,5.8c-0.1,0-0.1-0.1-0.1-0.2c0-0.6,0-1.2,0-1.9c0.6,0.2,1.1,0.5,1.6,0.7c0.1,0,0.1,0.1,0.1,0.2
	C5.5,5.2,5.5,5.9,5.5,6.6z"/>
<path d="M5.5,10.3C4.9,10,4.4,9.8,3.9,9.5c-0.1,0-0.1-0.1-0.1-0.2c0-0.6,0-1.2,0-1.9c0.6,0.2,1.1,0.5,1.6,0.7c0.1,0,0.1,0.1,0.1,0.2
	C5.5,8.9,5.5,9.6,5.5,10.3z"/>
<path d="M5.5,14c-0.6-0.3-1.1-0.5-1.6-0.8c-0.1,0-0.1-0.1-0.1-0.2c0-0.6,0-1.2,0-1.9c0.6,0.2,1.1,0.5,1.6,0.7c0.1,0,0.1,0.1,0.1,0.2
	C5.5,12.6,5.5,13.3,5.5,14z"/>
<g>
	<path d="M0,12c0.6,0,1,0,1.7,0c0.1,0,0.2,0.1,0.2,0.1s0,1.4,0,1.8c0,0-1.3,0-1.9,0c0-0.3,0-0.5,0-0.8c0.2,0,0.4,0,0.6,0.1
		c0,0,0-0.2,0-0.3c-0.2,0-0.4-0.1-0.6-0.1C0,12.5,0,12.2,0,12z"/>
	<path d="M2.5,12.1c0,0.7,0,1.9,0,1.9l-0.4,0V12C2.2,12,2.4,12.1,2.5,12.1z"/>
</g>
<g>
	<path d="M0,9c0.6,0,1,0,1.7,0c0.1,0,0.2,0.1,0.2,0.1s0,1.4,0,1.8c0,0-1.3,0-1.9,0c0-0.3,0-0.5,0-0.8c0.2,0,0.4,0,0.6,0.1
		c0,0,0-0.2,0-0.3C0.4,9.9,0.2,9.8,0,9.8C0,9.5,0,9.2,0,9z"/>
	<path d="M2.5,9.1c0,0.7,0,1.9,0,1.9l-0.4,0V9C2.2,9,2.4,9.1,2.5,9.1z"/>
</g>
<g>
	<path d="M0,6c0.6,0,1,0,1.7,0c0.1,0,0.2,0.1,0.2,0.1s0,1.4,0,1.8c0,0-1.3,0-1.9,0c0-0.3,0-0.5,0-0.8c0.2,0,0.4,0,0.6,0.1
		c0,0,0-0.2,0-0.3C0.4,6.9,0.2,6.8,0,6.8C0,6.5,0,6.2,0,6z"/>
	<path d="M2.5,6.1c0,0.7,0,1.9,0,1.9L2.2,8V6C2.2,6,2.4,6.1,2.5,6.1z"/>
</g>
<g>
	<path d="M0,3c0.6,0,1,0,1.7,0c0.1,0,0.2,0.1,0.2,0.1s0,1.4,0,1.8c0,0-1.3,0-1.9,0c0-0.3,0-0.5,0-0.8c0.2,0,0.4,0,0.6,0.1
		c0,0,0-0.2,0-0.3C0.4,3.9,0.2,3.8,0,3.8C0,3.5,0,3.3,0,3z"/>
	<path d="M2.5,3.1c0,0.7,0,1.9,0,1.9L2.2,5V3C2.2,3,2.4,3.1,2.5,3.1z"/>
</g>
<g>
	<path d="M0,0c0.6,0,1,0,1.7,0c0.1,0,0.2,0.1,0.2,0.1s0,1.4,0,1.8c0,0-1.3,0-1.9,0c0-0.3,0-0.5,0-0.8c0.2,0,0.4,0,0.6,0.1
		c0,0,0-0.2,0-0.3C0.4,0.9,0.2,0.8,0,0.8C0,0.6,0,0.3,0,0z"/>
	<path d="M2.5,0.1c0,0.7,0,1.9,0,1.9L2.2,2V0C2.2,0,2.4,0.1,2.5,0.1z"/>
</g>
<rect x="6.3" y="0" width="0.5" height="14"/>
<g>
	<path d="M8.5,2.9c0.6-0.3,1.1-0.5,1.6-0.8c0.1,0,0.1-0.1,0.1-0.2c0-0.6,0-1.2,0-1.9C9.6,0.2,9.1,0.5,8.6,0.7
		c-0.1,0-0.1,0.1-0.1,0.2C8.5,1.6,8.5,2.2,8.5,2.9z"/>
	<path d="M8.5,6.6c0.6-0.3,1.1-0.5,1.6-0.8c0.1,0,0.1-0.1,0.1-0.2c0-0.6,0-1.2,0-1.9C9.6,3.9,9.1,4.1,8.6,4.4
		c-0.1,0-0.1,0.1-0.1,0.2C8.5,5.2,8.5,5.9,8.5,6.6z"/>
	<path d="M8.5,10.3c0.6-0.3,1.1-0.5,1.6-0.8c0.1,0,0.1-0.1,0.1-0.2c0-0.6,0-1.2,0-1.9C9.6,7.6,9.1,7.8,8.6,8.1
		c-0.1,0-0.1,0.1-0.1,0.2C8.5,8.9,8.5,9.6,8.5,10.3z"/>
	<path d="M8.5,14c0.6-0.3,1.1-0.5,1.6-0.8c0.1,0,0.1-0.1,0.1-0.2c0-0.6,0-1.2,0-1.9c-0.6,0.2-1.1,0.5-1.6,0.7
		c-0.1,0-0.1,0.1-0.1,0.2C8.5,12.6,8.5,13.3,8.5,14z"/>
	<g>
		<path d="M14,12c-0.6,0-1,0-1.7,0c-0.1,0-0.2,0.1-0.2,0.1s0,1.4,0,1.8c0,0,1.3,0,1.9,0c0-0.3,0-0.5,0-0.8c-0.2,0-0.4,0-0.6,0.1
			c0,0,0-0.2,0-0.3c0.2,0,0.4-0.1,0.6-0.1C14,12.5,14,12.2,14,12z"/>
		<path d="M11.5,12.1c0,0.7,0,1.9,0,1.9l0.4,0V12C11.8,12,11.6,12.1,11.5,12.1z"/>
	</g>
	<g>
		<path d="M14,9c-0.6,0-1,0-1.7,0c-0.1,0-0.2,0.1-0.2,0.1s0,1.4,0,1.8c0,0,1.3,0,1.9,0c0-0.3,0-0.5,0-0.8c-0.2,0-0.4,0-0.6,0.1
			c0,0,0-0.2,0-0.3c0.2,0,0.4-0.1,0.6-0.1C14,9.5,14,9.2,14,9z"/>
		<path d="M11.5,9.1c0,0.7,0,1.9,0,1.9l0.4,0V9C11.8,9,11.6,9.1,11.5,9.1z"/>
	</g>
	<g>
		<path d="M14,6c-0.6,0-1,0-1.7,0c-0.1,0-0.2,0.1-0.2,0.1s0,1.4,0,1.8c0,0,1.3,0,1.9,0c0-0.3,0-0.5,0-0.8c-0.2,0-0.4,0-0.6,0.1
			c0,0,0-0.2,0-0.3c0.2,0,0.4-0.1,0.6-0.1C14,6.5,14,6.2,14,6z"/>
		<path d="M11.5,6.1c0,0.7,0,1.9,0,1.9l0.4,0V6C11.8,6,11.6,6.1,11.5,6.1z"/>
	</g>
	<g>
		<path d="M14,3c-0.6,0-1,0-1.7,0c-0.1,0-0.2,0.1-0.2,0.1s0,1.4,0,1.8c0,0,1.3,0,1.9,0c0-0.3,0-0.5,0-0.8c-0.2,0-0.4,0-0.6,0.1
			c0,0,0-0.2,0-0.3c0.2,0,0.4-0.1,0.6-0.1C14,3.5,14,3.3,14,3z"/>
		<path d="M11.5,3.1c0,0.7,0,1.9,0,1.9l0.4,0V3C11.8,3,11.6,3.1,11.5,3.1z"/>
	</g>
	<g>
		<path d="M14,0c-0.6,0-1,0-1.7,0c-0.1,0-0.2,0.1-0.2,0.1s0,1.4,0,1.8c0,0,1.3,0,1.9,0c0-0.3,0-0.5,0-0.8c-0.2,0-0.4,0-0.6,0.1
			c0,0,0-0.2,0-0.3c0.2,0,0.4-0.1,0.6-0.1C14,0.6,14,0.3,14,0z"/>
		<path d="M11.5,0.1c0,0.7,0,1.9,0,1.9l0.4,0V0C11.8,0,11.6,0.1,11.5,0.1z"/>
	</g>
	<rect x="7.3" y="0" width="0.5" height="14"/>
</g>
</svg>
