<?xml version="1.0" encoding="utf-8"?>
<!-- Generator: Adobe Illustrator 19.0.1, SVG Export Plug-In . SVG Version: 6.00 Build 0)  -->
<!DOCTYPE svg PUBLIC "-//W3C//DTD SVG 1.1//EN" "http://www.w3.org/Graphics/SVG/1.1/DTD/svg11.dtd">
<svg version="1.1" id="Layer_2" xmlns="http://www.w3.org/2000/svg" xmlns:xlink="http://www.w3.org/1999/xlink" x="0px" y="0px"
	 viewBox="0 0 14 14" enable-background="new 0 0 14 14" xml:space="preserve">
<g>
	<path d="M9.6,8.5V2.3C9.6,1,8.4,0,7,0C5.6,0,4.4,1,4.4,2.3v6.3c-0.6,0.6-0.9,1.4-0.9,2.2C3.5,12.5,5.1,14,7,14s3.5-1.5,3.5-3.3
		C10.5,9.9,10.2,9.1,9.6,8.5z M7,13c-1.4,0-2.5-1-2.5-2.3c0-0.6,0.3-1.2,0.8-1.6L5.4,9V2.3C5.4,1.6,6.1,1,7,1c0.9,0,1.6,0.6,1.6,1.3
		V9l0.2,0.1c0.5,0.4,0.8,1,0.8,1.6C9.5,12,8.4,13,7,13z"/>
	<path d="M7.5,9.6v-7C7.5,2.3,7.3,2,7,2S6.5,2.3,6.5,2.6v7c-0.4,0.2-0.8,0.6-0.8,1.1C5.8,11.4,6.3,12,7,12c0.7,0,1.2-0.6,1.2-1.3
		C8.3,10.2,7.9,9.8,7.5,9.6z"/>
</g>
</svg>
