<?xml version="1.0" encoding="utf-8"?>
<!-- Generator: Adobe Illustrator 19.0.1, SVG Export Plug-In . SVG Version: 6.00 Build 0)  -->
<!DOCTYPE svg PUBLIC "-//W3C//DTD SVG 1.1//EN" "http://www.w3.org/Graphics/SVG/1.1/DTD/svg11.dtd">
<svg version="1.1" id="Layer_2" xmlns="http://www.w3.org/2000/svg" xmlns:xlink="http://www.w3.org/1999/xlink" x="0px" y="0px"
	 viewBox="0 0 14 14" enable-background="new 0 0 14 14" xml:space="preserve">
<g>
	<circle cx="7" cy="1.7" r="1.7"/>
	<path d="M9.3,4H8.5C8.1,4.4,7.6,4.7,7,4.7C6.4,4.7,5.9,4.4,5.5,4H4.7C4.3,4,4,4.3,4,4.7L4.5,9h1L6,14h2l0.5-5h1L10,4.7
		C10,4.3,9.7,4,9.3,4z"/>
	<path d="M3.6,5H3C2.7,5.3,2.4,5.5,2,5.5S1.3,5.3,1,5H0.4C0.2,5,0,5.2,0,5.5l0.3,3H1L1.3,12h1.3L3,8.5h0.7l0.3-3C4,5.2,3.8,5,3.6,5z
		"/>
	<circle cx="2" cy="3.2" r="1.3"/>
	<path d="M13.6,5H13c-0.2,0.3-0.6,0.5-1,0.5S11.3,5.3,11,5h-0.6C10.2,5,10,5.2,10,5.5l0.3,3H11l0.3,3.5h1.3L13,8.5h0.7l0.3-3
		C14,5.2,13.8,5,13.6,5z"/>
	<circle cx="12" cy="3.2" r="1.3"/>
</g>
</svg>
