<?xml version="1.0" encoding="utf-8"?>
<!-- Generator: Adobe Illustrator 19.0.1, SVG Export Plug-In . SVG Version: 6.00 Build 0)  -->
<!DOCTYPE svg PUBLIC "-//W3C//DTD SVG 1.1//EN" "http://www.w3.org/Graphics/SVG/1.1/DTD/svg11.dtd">
<svg version="1.1" id="Layer_2" xmlns="http://www.w3.org/2000/svg" xmlns:xlink="http://www.w3.org/1999/xlink" x="0px" y="0px"
	 viewBox="0 0 14 14" enable-background="new 0 0 14 14" xml:space="preserve">
<g>
	<path d="M4.2,12c-0.6,0.6-1.5,0.6-2.1,0L2,11.9c-0.6-0.6-0.6-1.5,0-2.1l3.4-3.4c-1-0.3-2.1,0-2.9,0.8L0.9,8.7
		c-1.2,1.2-1.2,3.1,0,4.3L1,13.1c1.2,1.2,3.1,1.2,4.3,0l1.6-1.6c0.8-0.8,1-1.9,0.8-2.9L4.2,12z"/>
	<path d="M13.1,5.3c1.2-1.2,1.2-3.1,0-4.3L13,0.9c-1.2-1.2-3.1-1.2-4.3,0L7.2,2.5c-0.8,0.8-1,1.9-0.8,2.9L9.8,2
		c0.6-0.6,1.5-0.6,2.1,0L12,2.1c0.6,0.6,0.6,1.5,0,2.1L8.6,7.6c1,0.3,2.1,0,2.9-0.8L13.1,5.3z"/>
	<path d="M0.8,6h2.6c0.3,0,0.5-0.2,0.5-0.5S3.7,4.9,3.4,4.9H0.8c-0.3,0-0.5,0.2-0.5,0.5S0.5,6,0.8,6z"/>
	<path d="M3.5,4.3c0.1,0.1,0.2,0.2,0.4,0.2c0.1,0,0.3-0.1,0.4-0.2c0.2-0.2,0.2-0.5,0-0.7L2.4,1.7c-0.2-0.2-0.5-0.2-0.7,0
		c-0.2,0.2-0.2,0.5,0,0.7L3.5,4.3z"/>
	<path d="M5.4,3.9C5.7,3.9,6,3.7,6,3.4V0.8c0-0.3-0.2-0.5-0.5-0.5c-0.3,0-0.5,0.2-0.5,0.5v2.6C4.9,3.7,5.2,3.9,5.4,3.9z"/>
	<path d="M13.2,8h-2.6c-0.3,0-0.5,0.2-0.5,0.5s0.2,0.5,0.5,0.5h2.6c0.3,0,0.5-0.2,0.5-0.5S13.5,8,13.2,8z"/>
	<path d="M10.5,9.7c-0.1-0.1-0.2-0.2-0.4-0.2c-0.1,0-0.3,0.1-0.4,0.2c-0.2,0.2-0.2,0.5,0,0.7l1.8,1.8c0.2,0.2,0.5,0.2,0.7,0
		c0.2-0.2,0.2-0.5,0-0.7L10.5,9.7z"/>
	<path d="M8.6,10.1c-0.3,0-0.5,0.2-0.5,0.5v2.6c0,0.3,0.2,0.5,0.5,0.5s0.5-0.2,0.5-0.5v-2.6C9.1,10.3,8.8,10.1,8.6,10.1z"/>
</g>
</svg>
