<?xml version="1.0" encoding="utf-8"?>
<!-- Generator: Adobe Illustrator 19.0.1, SVG Export Plug-In . SVG Version: 6.00 Build 0)  -->
<!DOCTYPE svg PUBLIC "-//W3C//DTD SVG 1.1//EN" "http://www.w3.org/Graphics/SVG/1.1/DTD/svg11.dtd">
<svg version="1.1" id="Layer_2" xmlns="http://www.w3.org/2000/svg" xmlns:xlink="http://www.w3.org/1999/xlink" x="0px" y="0px"
	 viewBox="0 0 14 14" enable-background="new 0 0 14 14" xml:space="preserve">
<g>
	<path d="M10.9,6.1L10.9,6.1c0-0.2-0.1-0.4-0.2-0.6c0-0.1,0-0.1-0.1-0.2c0,0,0-0.1-0.1-0.1l0,0C10,4.1,8.8,3.2,7.5,3v0c0,0,0,0,0,0
		C7.3,3,7.2,3,7,3S6.7,3,6.5,3c0,0,0,0,0,0v0C5.2,3.2,4,4.1,3.4,5.2l0,0c0,0,0,0.1-0.1,0.1c0,0.1,0,0.1-0.1,0.2
		C3.2,5.7,3.1,5.9,3.1,6.1l0,0C3,6.4,3,6.7,3,7c0,1.1,0.4,2,1.1,2.7l0,0c0,0,0,0,0,0c0.2,0.2,0.4,0.4,0.7,0.6c0,0,0,0,0,0l0,0
		C5.5,10.8,6.2,11,7,11s1.5-0.2,2.1-0.6l0,0c0,0,0,0,0,0c0.3-0.2,0.5-0.4,0.7-0.6c0,0,0,0,0,0l0,0C10.6,9,11,8.1,11,7
		C11,6.7,11,6.4,10.9,6.1z M10.1,5.4L8.1,6.1C7.8,6.2,7.5,6,7.5,5.7V3.6C8.6,3.7,9.6,4.4,10.1,5.4z M7.8,7c0,0.4-0.4,0.8-0.8,0.8
		S6.2,7.4,6.2,7c0-0.4,0.4-0.8,0.8-0.8S7.8,6.6,7.8,7z M6.5,3.6v2.1c0,0.3-0.3,0.6-0.7,0.5L3.9,5.4C4.4,4.4,5.4,3.7,6.5,3.6z M3.5,7
		c0-0.2,0-0.5,0.1-0.7L5.5,7c0.3,0.1,0.4,0.5,0.2,0.8L4.4,9.3C3.9,8.7,3.5,7.9,3.5,7z M7,10.5c-0.7,0-1.3-0.2-1.8-0.5l1.4-1.7
		C6.8,8,7.2,8,7.4,8.3L8.8,10C8.3,10.3,7.7,10.5,7,10.5z M8.3,7.8C8.1,7.5,8.2,7.1,8.5,7l1.9-0.7c0,0.2,0.1,0.4,0.1,0.7
		c0,0.9-0.4,1.7-0.9,2.3L8.3,7.8z"/>
	<path d="M7,0C3.1,0,0,3.1,0,7s3.1,7,7,7s7-3.1,7-7S10.9,0,7,0z M7,11.7c-2.6,0-4.7-2.1-4.7-4.7S4.4,2.3,7,2.3s4.7,2.1,4.7,4.7
		S9.6,11.7,7,11.7z"/>
</g>
</svg>
