<?xml version="1.0" encoding="utf-8"?>
<!-- Generator: Adobe Illustrator 19.0.1, SVG Export Plug-In . SVG Version: 6.00 Build 0)  -->
<!DOCTYPE svg PUBLIC "-//W3C//DTD SVG 1.1//EN" "http://www.w3.org/Graphics/SVG/1.1/DTD/svg11.dtd">
<svg version="1.1" id="Layer_2" xmlns="http://www.w3.org/2000/svg" xmlns:xlink="http://www.w3.org/1999/xlink" x="0px" y="0px"
	 viewBox="0 0 14 14" enable-background="new 0 0 14 14" xml:space="preserve">
<path d="M7,0C3.1,0,0,3.1,0,7s3.1,7,7,7s7-3.1,7-7S10.9,0,7,0z M11.3,7c0,1.1-0.5,2.2-1.2,2.9L8.5,8C8.2,7.7,8.3,7.2,8.7,7.1
	l2.5-0.9C11.3,6.4,11.3,6.7,11.3,7z M7.9,7c0,0.5-0.4,0.9-0.9,0.9S6.1,7.5,6.1,7S6.5,6.1,7,6.1S7.9,6.5,7.9,7z M7.6,5.5V2.8
	C9,3,10.2,3.9,10.8,5.1L8.3,6C7.9,6.2,7.6,5.9,7.6,5.5z M6.4,2.8v2.7c0,0.4-0.4,0.7-0.8,0.5L3.2,5.1C3.8,3.9,5,3,6.4,2.8z M2.8,6.2
	l2.5,0.9C5.7,7.2,5.8,7.7,5.5,8l-1.6,2C3.2,9.2,2.7,8.1,2.7,7C2.7,6.7,2.7,6.4,2.8,6.2z M6.6,8.5c0.2-0.3,0.6-0.3,0.9,0l1.8,2.2
	C8.6,11,7.8,11.3,7,11.3S5.4,11,4.8,10.6L6.6,8.5z"/>
</svg>
