<?xml version="1.0" encoding="utf-8"?>
<!-- Generator: Adobe Illustrator 19.0.1, SVG Export Plug-In . SVG Version: 6.00 Build 0)  -->
<!DOCTYPE svg PUBLIC "-//W3C//DTD SVG 1.1//EN" "http://www.w3.org/Graphics/SVG/1.1/DTD/svg11.dtd">
<svg version="1.1" id="Layer_2" xmlns="http://www.w3.org/2000/svg" xmlns:xlink="http://www.w3.org/1999/xlink" x="0px" y="0px"
	 viewBox="0 0 14 14" enable-background="new 0 0 14 14" xml:space="preserve">
<path d="M13.9,12.7l-6.5-12c-0.2-0.4-0.7-0.4-0.9,0l-6.5,12c-0.2,0.3,0.1,0.8,0.5,0.8h12.9C13.9,13.5,14.1,13.1,13.9,12.7z M7,12
	c-0.6,0-1-0.4-1-1s0.4-1,1-1s1,0.4,1,1S7.6,12,7,12z M8,8.1C8,8.6,7.6,9,7,9S6,8.6,6,8.1V4.8C6,4.4,6.4,4,7,4s1,0.4,1,0.8V8.1z"/>
</svg>
