<?xml version="1.0" encoding="utf-8"?>
<!-- Generator: Adobe Illustrator 19.0.1, SVG Export Plug-In . SVG Version: 6.00 Build 0)  -->
<!DOCTYPE svg PUBLIC "-//W3C//DTD SVG 1.1//EN" "http://www.w3.org/Graphics/SVG/1.1/DTD/svg11.dtd">
<svg version="1.1" id="Layer_2" xmlns="http://www.w3.org/2000/svg" xmlns:xlink="http://www.w3.org/1999/xlink" x="0px" y="0px"
	 viewBox="0 0 14 14" enable-background="new 0 0 14 14" xml:space="preserve">
<g>
	<path d="M3.3,2.4l0.1,0c0,0,0.1,0,0.1,0c0.6,0,1.2-0.3,1.5-0.8c0.3-0.5,0.4-1.1,0.3-1.5L5.2,0L5.1,0.1C4.9,0.2,4.8,0.3,4.6,0.3
		c-0.7,0.4-1.5,0.8-1.4,2L3.3,2.4z"/>
	<path d="M2.4,3.9L2.4,3.9l0.1,0c0.3-0.3,0.4-0.7,0.4-1.2c-0.1-0.7-0.6-1.4-1-1.8L1.7,0.8L1.7,0.9C1.3,1.6,1.3,2.6,1.6,3.2
		C1.7,3.6,2,3.8,2.4,3.9z"/>
	<path d="M4.6,3.4l0-0.2l-0.2,0c-0.1,0-0.2,0.1-0.4,0.1C3.2,3.6,2.2,3.8,2,5.1l0,0.1l0.1,0c0.2,0.1,0.3,0.1,0.5,0.1
		C3.7,5.3,4.5,4.3,4.6,3.4z"/>
	<path d="M1.4,6.5l0.1,0l0.1-0.1c0.8-1.3-0.2-2.2-0.9-2.9L0.4,3.4l0,0.2C0.1,4.5,0,5.9,1.4,6.5z"/>
	<path d="M2.4,7.5L2.4,7.5C2.6,7.6,2.8,7.6,3,7.6c0,0,0,0,0,0c0.4,0,0.8-0.2,1.1-0.6c0.4-0.5,0.6-1.1,0.5-1.6l0-0.1l-0.1,0
		C3,5.8,2.3,6.5,2.4,7.5L2.4,7.5z"/>
	<path d="M2.3,9l0.1,0l0-0.1c0.1-0.4,0-0.9-0.3-1.2c-0.4-0.6-1.1-1-2-1.1L0,6.5l0.1,0.2c0,0.1,0.1,0.2,0.1,0.3
		C0.5,7.8,0.9,8.8,2.3,9z"/>
	<path d="M3.2,9.5c0.1,0.1,0.3,0.1,0.5,0.1c0.3,0,0.6-0.2,0.8-0.4C4.9,8.7,5.2,8,5.1,7.5l0-0.1L5,7.4C4.1,7.6,3,8.3,3.2,9.5L3.2,9.5
		L3.2,9.5z"/>
	<path d="M5,12L5,12l0.1,0c0.4-0.2,0.8-0.5,0.9-1c0.2-0.5,0.1-1.2-0.2-1.7L5.7,9.2L5.6,9.3C5,9.9,4,11,5,12z"/>
	<path d="M3.5,10.7L3.5,10.7l0.1-0.1C3.4,9.9,2.4,9.3,1.2,9.3c-0.2,0-0.5,0-0.7,0.1l-0.2,0l0.1,0.2C0.9,10.1,1.7,11,2.7,11
		C3,11,3.3,10.9,3.5,10.7z"/>
	<path d="M3.9,12.6c0.6-0.1,0.7-0.4,0.7-0.5c0-0.3-0.4-0.7-0.9-0.8c-0.2,0-0.3,0-0.5,0c-0.7,0-1.4,0.2-1.7,0.5l-0.2,0.1l0.2,0.1
		c0.1,0,0.2,0.1,0.3,0.1c0.5,0.3,1.2,0.6,1.8,0.6C3.7,12.6,3.8,12.6,3.9,12.6z"/>
	<path d="M10.5,2.5c0,0,0.1,0,0.1,0l0.1,0l0-0.1c0.1-1.2-0.7-1.6-1.4-2C9.2,0.3,9.1,0.2,8.9,0.1L8.8,0L8.7,0.1
		C8.6,0.6,8.7,1.2,9,1.7C9.4,2.2,9.9,2.5,10.5,2.5z"/>
	<path d="M11.6,3.9L11.6,3.9c0.4-0.1,0.7-0.3,0.9-0.7c0.3-0.6,0.3-1.6-0.1-2.3l-0.1-0.1l-0.1,0.1c-0.4,0.3-0.9,1-1,1.8
		C11.1,3.1,11.2,3.5,11.6,3.9L11.6,3.9z"/>
	<path d="M12,5.2L12,5.2c-0.1-1.4-1.2-1.6-2-1.8c-0.1,0-0.2,0-0.4-0.1l-0.2,0l0,0.2c0.1,0.9,0.9,1.9,1.9,1.9
		C11.5,5.3,11.7,5.3,12,5.2L12,5.2z"/>
	<path d="M12.4,6.5L12.4,6.5l0.2,0c1.4-0.6,1.3-2,1.1-2.9l0-0.2l-0.2,0.2C12.7,4.3,11.7,5.2,12.4,6.5z"/>
	<path d="M11.5,7.5L11.5,7.5L11.5,7.5c0.2-1-0.5-1.7-1.9-2.2l-0.1,0l0,0.1C9.3,5.8,9.5,6.5,9.9,7c0.3,0.4,0.7,0.6,1.1,0.6
		C11.2,7.6,11.4,7.6,11.5,7.5z"/>
	<path d="M13.8,6.5c-0.9,0.1-1.6,0.6-2,1.1c-0.3,0.4-0.3,0.8-0.3,1.2l0,0.1l0.1,0c1.4-0.2,1.8-1.2,2.1-2c0-0.1,0.1-0.2,0.1-0.3
		L14,6.5L13.8,6.5z"/>
	<path d="M8.9,7.3l0,0.1c0,0.5,0.2,1.2,0.6,1.7c0.3,0.3,0.5,0.4,0.8,0.4c0.2,0,0.3,0,0.5-0.1l0.1,0l0-0.1c0.1-1.1-1-1.8-1.8-2
		L8.9,7.3z"/>
	<path d="M8.9,12L8.9,12l0.1,0c1-1.1-0.1-2.1-0.7-2.7L8.2,9.2L8.2,9.3C7.9,9.9,7.8,10.6,8,11.1C8.1,11.5,8.5,11.8,8.9,12z"/>
	<path d="M12.8,9.3c-1.1,0-2.2,0.6-2.3,1.3l0,0.1l0.1,0c0.3,0.1,0.5,0.2,0.8,0.2c1,0,1.8-0.9,2.3-1.4l0.1-0.2l-0.2,0
		C13.3,9.3,13,9.3,12.8,9.3z"/>
	<path d="M10.8,11.2c-0.2,0-0.3,0-0.5,0c-0.5,0.1-0.9,0.5-0.9,0.8c0,0.2,0.1,0.4,0.7,0.5c0.1,0,0.2,0,0.3,0c0.7,0,1.4-0.3,1.8-0.6
		c0.1-0.1,0.2-0.1,0.3-0.1l0.2-0.1l-0.2-0.1C12.2,11.4,11.5,11.2,10.8,11.2z"/>
	<path d="M8.6,12.7c-0.6,0-1.1,0.2-1.5,0.5L7,13.2l-0.1-0.1c-0.4-0.3-0.9-0.5-1.5-0.5c-0.7,0-1.4,0.2-1.8,0.6l-0.1,0.1l0.1,0.1
		C4.1,13.8,4.9,14,5.6,14c0.7,0,1.2-0.2,1.4-0.7l0-0.1l0,0.1C7.2,13.8,7.7,14,8.4,14c0.7,0,1.4-0.2,1.9-0.5l0.1-0.1l-0.1-0.1
		C9.9,12.9,9.2,12.7,8.6,12.7z"/>
</g>
</svg>
