<?xml version="1.0" standalone="no"?>
<!DOCTYPE svg PUBLIC "-//W3C//DTD SVG 20010904//EN"
 "http://www.w3.org/TR/2001/REC-SVG-20010904/DTD/svg10.dtd">
<svg version="1.0" xmlns="http://www.w3.org/2000/svg"
 width="180.000000pt" height="180.000000pt" viewBox="0 0 180.000000 180.000000"
 preserveAspectRatio="xMidYMid meet">
<metadata>
Created by potrace 1.11, written by Peter Selinger 2001-2013
</metadata>
<g transform="translate(0.000000,180.000000) scale(0.100000,-0.100000)"
fill="#000000" stroke="none">
<path d="M475 1427 c-63 -30 -100 -73 -120 -139 -37 -127 52 -203 173 -148 46
21 50 15 26 -36 -11 -23 -26 -36 -48 -43 -31 -8 -124 1 -145 13 -13 8 -25 -74
-14 -85 6 -6 48 -12 96 -16 149 -10 213 23 235 124 6 26 25 112 43 190 18 79
29 146 26 150 -4 3 -56 8 -115 10 -97 4 -112 2 -157 -20z m142 -71 c8 -6 -31
-104 -49 -123 -23 -25 -67 -30 -86 -11 -33 33 6 121 60 137 27 7 64 6 75 -3z"/>
<path d="M856 1441 c-28 -6 -30 -10 -51 -116 -13 -60 -34 -159 -49 -218 -14
-60 -26 -113 -26 -118 0 -5 26 -9 59 -9 l58 0 19 85 c15 69 22 84 34 79 67
-29 93 -34 128 -24 72 19 142 121 142 208 0 42 -31 94 -66 108 -34 14 -191 18
-248 5z m164 -81 c26 -14 33 -54 16 -94 -27 -64 -91 -83 -117 -34 -14 26 -3
103 17 123 18 17 57 20 84 5z"/>
<path d="M1150 1117 c-87 -42 -115 -91 -108 -191 3 -56 8 -70 33 -97 49 -50
83 -59 229 -59 72 0 136 4 142 8 6 4 14 21 18 38 7 30 6 31 -24 26 -36 -5 -38
3 -9 35 29 29 36 106 16 154 -8 20 -32 49 -53 65 -34 27 -45 29 -128 31 -56 1
-101 -2 -116 -10z m158 -67 c80 -49 63 -172 -29 -210 -39 -16 -76 -5 -116 35
-39 39 -44 82 -14 131 19 32 72 63 106 64 11 0 35 -9 53 -20z"/>
<path d="M275 928 c28 -6 51 -12 53 -13 4 -4 9 -52 17 -175 l6 -95 -33 -14
c-18 -8 -36 -16 -40 -19 -5 -2 -8 15 -8 37 0 23 -4 41 -10 41 -9 0 -15 -57
-13 -122 1 -18 -4 -28 -13 -28 -9 0 -14 -11 -14 -30 0 -35 -8 -37 -43 -10 -14
11 -28 16 -31 11 -8 -13 56 -51 84 -51 13 0 37 -11 54 -23 41 -32 79 -40 113
-25 15 7 78 15 138 18 71 3 109 9 108 16 -1 7 12 8 45 1 26 -6 155 -12 288
-13 187 -3 249 -7 277 -19 47 -19 55 -19 102 5 29 15 59 20 116 20 129 0 168
9 184 41 8 15 15 30 15 33 0 8 -149 53 -220 67 -36 6 -80 18 -99 26 -23 11
-45 13 -70 7 -49 -10 -161 -14 -161 -5 0 18 -68 31 -115 22 -33 -6 -56 -5 -73
2 -20 9 -26 9 -30 -1 -2 -8 -35 -12 -114 -12 -83 0 -109 3 -105 13 5 15 -20
67 -33 67 -6 0 -10 -18 -10 -40 0 -34 -3 -40 -21 -40 -16 0 -20 5 -16 20 6 25
-11 26 -29 3 -13 -17 -13 -17 -14 0 0 9 -7 17 -16 17 -8 0 -13 -4 -9 -9 3 -5
1 -12 -5 -16 -5 -3 -10 1 -10 9 0 26 -20 28 -29 4 -9 -22 -12 -21 -15 2 -2 19
-21 11 -24 -10 -3 -16 -8 -20 -20 -14 -9 3 -27 9 -39 11 -19 4 -22 14 -27 86
-4 45 -9 108 -12 140 -5 49 -4 57 11 57 9 0 13 5 10 10 -3 6 -39 9 -78 9 l-72
-1 50 -10z m668 -402 c9 -22 -19 -42 -37 -26 -19 15 -10 40 14 40 10 0 20 -6
23 -14z"/>
<path d="M688 433 c6 -2 18 -2 25 0 6 3 1 5 -13 5 -14 0 -19 -2 -12 -5z"/>
</g>
</svg>
